<svg width="174" height="36" viewBox="0 0 174 36" fill="none" xmlns="http://www.w3.org/2000/svg">
<g clip-path="url(#clip0_423_164)">
<path d="M16.9767 31.8443C17.8479 32.3468 18.7168 32.847 19.6674 33.3952C19.4995 33.4477 19.3951 33.5208 19.3225 33.4957C19.1274 33.4295 18.9369 33.3358 18.7622 33.2262C17.9931 32.7442 17.3261 32.5638 16.3642 33.0343C15.1368 33.635 13.8164 33.1919 12.5278 32.5661C13.5918 31.6958 14.7511 31.6022 16.1146 31.8214C14.978 31.0334 13.9503 30.3208 12.8998 29.5921C11.2482 30.684 9.63064 30.3185 7.94046 29.4071C9.37655 28.3839 10.8036 28.578 12.3758 29.1833C11.3707 28.2559 10.4746 27.4314 9.54216 26.5725C7.90416 27.5798 6.30246 27.2395 4.64177 26.3144C6.096 25.3071 7.53209 25.4716 9.0975 26.1089C8.40327 25.282 7.77938 24.5397 7.13053 23.7654C5.49253 24.8092 3.90444 24.4278 2.23013 23.5233C3.7547 22.484 5.22709 22.685 6.8356 23.3953C6.41135 22.7307 6.06197 22.1414 5.66495 21.584C5.58555 21.4744 5.33145 21.4676 5.15676 21.4584C3.64807 21.3716 2.29139 20.362 1.80816 18.9116C3.08997 18.7929 4.13358 19.2451 5.0887 20.2296C4.76428 19.0167 4.47161 17.9249 4.16534 16.7851C2.29139 16.7897 1.1094 15.7915 0.406098 14.0122C2.07586 13.9071 3.1603 14.7203 4.03602 16.1456C3.90444 14.8824 3.78873 13.7655 3.66622 12.5915C1.79454 12.6143 0.691954 11.5454 0 9.86882C1.2977 9.62213 2.21425 10.1475 3.72067 12.0067V9.10821C1.9352 9.05567 0.796315 8.05752 0.10436 6.30788C1.85807 6.2919 3.00149 7.0959 3.76151 8.54632C3.81596 8.53946 3.87268 8.53261 3.92712 8.52576C3.98838 7.69434 4.17441 6.84922 4.08366 6.03607C3.90444 4.41664 4.56009 3.04845 5.94627 2.52539C6.45673 3.75653 6.05063 5.3714 4.99115 6.1046C4.6032 6.37184 4.49884 6.68705 4.51018 7.20783C5.32918 6.09546 6.33649 5.47875 7.66368 5.4719C7.54344 6.76928 6.1686 8.17629 4.8709 8.30192C4.32868 8.35445 4.17895 8.60113 4.16307 9.08765C4.14038 9.79801 4.07686 10.5084 4.07686 11.2393C4.85276 9.85283 5.93266 9.01228 7.56386 8.98943C7.3211 10.5815 5.93039 11.7441 4.00653 11.9108C4.10635 13.142 4.20844 14.3731 4.306 15.5745C4.83914 14.9624 5.28381 14.3251 5.85325 13.834C6.43177 13.3315 7.17591 13.1351 7.96315 13.1625C7.7635 14.686 6.50437 15.7573 4.43078 16.1456C4.56009 16.7509 4.68714 17.3539 4.84595 18.1008C5.52656 16.5841 6.5021 15.6773 8.07205 15.5791C8.24447 16.76 7.08289 17.9866 5.00703 18.7586C5.38817 19.7842 5.76704 20.8097 6.14592 21.8353C6.20944 21.8262 6.27069 21.817 6.33422 21.8079C6.20944 20.5676 6.56789 19.5512 7.60696 18.8385C8.50764 20.1542 8.30118 21.5955 7.00349 23.023C7.60242 23.7699 8.20363 24.5237 8.81845 25.2934C8.81845 24.5831 8.74131 23.9138 8.83887 23.272C8.94549 22.5731 9.41285 22.0523 10.0072 21.664C10.9397 22.854 10.7151 24.3478 9.34252 25.885C10.2954 26.7964 11.2482 27.71 12.2034 28.6214C11.8041 27.0728 11.922 25.7366 13.2901 24.7384C14.2724 25.8896 14.0229 27.5913 12.6344 28.9549C13.4625 29.5602 14.2656 30.1792 15.105 30.7456C15.7108 31.1568 16.3642 31.4971 16.9971 31.8671L16.9767 31.8466V31.8443Z" fill="white"/>
<path d="M37.0702 11.2394C37.0044 10.3166 36.9386 9.39607 36.8683 8.42076C35.0056 8.26315 33.8917 7.24215 33.3382 5.4674C34.7493 5.47425 35.7725 6.08867 36.5937 7.2787C36.5937 6.71681 36.503 6.37876 36.081 6.09096C35.051 5.38745 34.6812 3.9279 35.1282 2.49805C35.8133 2.75387 36.3691 3.181 36.6278 3.85024C36.8478 4.42127 36.959 5.05169 37.0112 5.66383C37.0906 6.60717 37.0747 7.55736 37.1972 8.52811C37.7621 7.69669 38.3474 6.95664 39.2708 6.61631C39.7745 6.42901 40.3167 6.34678 40.868 6.20973C40.8022 7.63959 39.2685 8.86844 37.3061 9.12198C37.3447 10.0174 37.3855 10.9196 37.4218 11.7716C37.9141 11.2987 38.3906 10.746 38.9623 10.3234C39.5476 9.88944 40.2577 9.72727 41.0018 9.80036C40.8476 11.2394 39.3842 12.3905 37.4286 12.5984C37.3129 13.7062 37.1949 14.8254 37.0634 16.0817C37.9504 14.7021 39.0326 13.9026 40.6252 13.9986C40.2418 15.6111 38.9509 16.5842 36.9363 16.792C36.6437 17.8724 36.351 18.9619 36.0175 20.1999C36.9862 19.2269 38.0276 18.7792 39.2958 18.9094C38.8125 20.3667 37.4195 21.4242 35.9562 21.4425C35.6159 21.4471 35.4072 21.5316 35.2325 21.8376C34.9535 22.331 34.6245 22.7947 34.2456 23.3794C35.8292 22.6873 37.3152 22.4886 38.783 23.4434C37.8461 24.2474 35.7067 24.9052 33.9507 23.7769C33.3223 24.5215 32.6938 25.2684 31.9996 26.0929C33.5582 25.4717 35.0011 25.3049 36.4644 26.3191C34.8105 27.2716 33.2134 27.5571 31.5459 26.5635C30.6475 27.3949 29.7604 28.2126 28.8439 29.06C31.4551 28.5507 32.1221 28.6032 33.1158 29.4163C31.4801 30.298 29.8625 30.6886 28.1973 29.5854C27.1469 30.3094 26.1078 31.0266 24.9576 31.8238C26.3097 31.584 27.4667 31.6982 28.499 32.4976C27.3919 33.3816 25.3183 33.5049 24.0523 32.7489C23.7688 32.5798 23.5691 32.5661 23.2923 32.7283C22.8522 32.9841 22.3894 33.2057 21.9288 33.4204C21.8154 33.4729 21.6679 33.4546 21.5137 33.3838C23.9435 32.0796 26.3097 30.7183 28.4604 28.8933C27.7503 28.4068 27.2331 27.7535 27.2376 26.8924C27.2421 26.1729 27.4373 25.4534 27.5552 24.6974C28.887 25.2364 29.2726 26.5566 28.7644 28.6717C29.1864 28.3017 29.5177 28.0207 29.8353 27.7307C30.1574 27.436 30.4637 27.1254 30.7813 26.8284C31.1126 26.5178 31.4506 26.214 31.7818 25.9079C30.3299 24.3342 30.1325 23.1236 31.0354 21.6755C32.2038 22.2967 32.5169 23.3018 32.1335 25.4465C32.8436 24.5672 33.4697 23.7906 34.0914 23.0185C32.7664 21.6207 32.5645 20.2273 33.4833 18.818C34.5428 19.5878 34.9308 20.6156 34.6994 21.9016C34.7584 21.9199 34.8151 21.9381 34.8741 21.9564C35.2824 20.8966 35.6908 19.8368 36.1219 18.713C35.1327 18.5508 34.3046 18.215 33.7647 17.4544C33.3903 16.9245 33.1294 16.3124 32.7959 15.6979C34.1118 15.4672 35.0805 16.1525 36.2466 18.062C36.3941 17.3813 36.5302 16.7669 36.6731 16.1022C34.7674 15.9698 33.6308 14.9579 33.0455 13.1375C34.8536 13.1946 35.9653 14.0968 36.7662 15.6408C36.8773 14.4166 36.9862 13.1923 37.1019 11.9109C35.1645 11.8218 34.0414 10.7917 33.4561 8.98722C35.1599 8.9895 36.2307 9.84833 37.0724 11.2325L37.0702 11.2394Z" fill="white"/>
<path d="M23.9665 31.7932C22.6529 30.7608 22.4714 29.0317 23.5309 27.6133C24.8626 28.4493 25.0781 30.5369 23.9665 31.7932Z" fill="white"/>
<path d="M16.997 31.8615C16.8223 31.3635 16.5909 30.877 16.482 30.3631C16.2438 29.2393 16.6113 28.3142 17.5029 27.5879C18.719 29.1274 18.3287 31.1625 16.9789 31.8409L16.9993 31.8615H16.997Z" fill="white"/>
<path d="M15 10.7862C15 9.24744 16.2474 8 17.7862 8V8C17.9401 8 18.0649 8.12474 18.0649 8.27862V14.8367C18.0649 16.3755 16.8174 17.623 15.2786 17.623V17.623C15.1247 17.623 15 17.4982 15 17.3443V10.7862Z" fill="white"/>
<path d="M18.9561 8.27862C18.9561 8.12474 19.0808 8 19.2347 8V8C20.7735 8 22.0209 9.25756 22.0209 10.7964V10.7964C22.0209 10.9508 21.8957 11.0771 21.7412 11.0771H20.4885C19.6421 11.0771 18.9561 10.391 18.9561 9.54468V8.27862Z" fill="white"/>
<path d="M25.9775 10.7862C25.9775 9.24744 24.7301 8 23.1913 8V8C23.0374 8 22.9127 8.12474 22.9127 8.27862V14.8367C22.9127 16.3755 24.1601 17.623 25.6989 17.623V17.623C25.8528 17.623 25.9775 17.4982 25.9775 17.3443V10.7862Z" fill="white"/>
</g>
<path d="M52.702 14H50.994V4.452H53.08L59.73 12.586L66.38 4.452H68.438V14H66.73V6.482L60.57 14H58.848L52.702 6.482V14ZM81.8177 9.03V4.452H83.5257V9.338C83.5257 12.642 81.0057 14.154 76.9037 14.154C72.7877 14.154 70.2817 12.642 70.2817 9.338V4.452H71.9897V9.03C71.9897 11.55 73.5437 12.67 76.9037 12.67C80.2637 12.67 81.8177 11.55 81.8177 9.03ZM87.0868 12.53H97.5168V14H85.3788V4.452H87.0868V12.53ZM101.307 5.922H95.5525V4.452H108.769V5.922H103.015V14H101.307V5.922ZM111.956 14H110.248V4.452H111.956V14ZM115.367 9.24C115.367 11.564 116.571 12.67 120.505 12.67C122.759 12.67 125.125 12.25 126.735 11.9L127.057 13.342C125.209 13.79 122.703 14.168 120.449 14.168C115.675 14.168 113.659 12.558 113.659 9.24C113.659 5.908 115.675 4.312 120.449 4.312C122.703 4.312 125.209 4.69 127.057 5.138L126.735 6.58C125.125 6.23 122.759 5.796 120.505 5.796C116.571 5.796 115.367 6.916 115.367 9.24ZM135.601 14.168C130.435 14.168 128.069 12.656 128.069 9.226C128.069 5.796 130.435 4.284 135.601 4.284C140.767 4.284 143.133 5.796 143.133 9.226C143.133 12.656 140.767 14.168 135.601 14.168ZM135.601 12.684C139.941 12.684 141.397 11.62 141.397 9.226C141.397 6.832 139.941 5.768 135.601 5.768C131.261 5.768 129.777 6.832 129.777 9.226C129.777 11.62 131.261 12.684 135.601 12.684ZM146.546 14H144.838V4.452H146.798L156.584 12.152V4.452H158.292V14H156.346L146.546 6.244V14ZM172.635 14H160.273V4.452H172.635V5.824H161.981V8.554H172.369V9.716H161.981V12.628H172.635V14ZM50.994 32V22.452H60.248C62.6 22.452 63.93 23.334 63.93 25.546C63.93 27.842 62.6 28.794 60.248 28.794H52.702V32H50.994ZM60.108 23.922H52.702V27.324H60.108C61.536 27.324 62.166 26.834 62.166 25.63C62.166 24.384 61.536 23.922 60.108 23.922ZM68.4985 32H66.7905V22.452H75.9605C78.2985 22.452 79.6285 23.348 79.6285 25.574C79.6285 27.59 78.5085 28.584 76.2965 28.668L75.2325 28.682L76.0865 29.27L79.4325 32H77.2485L73.3285 28.752H68.4985V32ZM68.4985 23.922V27.436H75.8485C77.2905 27.436 77.8785 26.932 77.8785 25.686C77.8785 24.412 77.2905 23.922 75.8485 23.922H68.4985ZM89.839 32.168C84.673 32.168 82.307 30.656 82.307 27.226C82.307 23.796 84.673 22.284 89.839 22.284C95.005 22.284 97.371 23.796 97.371 27.226C97.371 30.656 95.005 32.168 89.839 32.168ZM89.839 30.684C94.179 30.684 95.635 29.62 95.635 27.226C95.635 24.832 94.179 23.768 89.839 23.768C85.499 23.768 84.015 24.832 84.015 27.226C84.015 29.62 85.499 30.684 89.839 30.684ZM102.364 30.74C105.444 30.74 106.27 29.984 106.27 28.024V22.452H107.978V28.038C107.978 30.768 106.634 32.21 102.406 32.21C101.3 32.21 99.9557 32.056 99.0177 31.734L99.4097 30.334C100.32 30.614 101.524 30.74 102.364 30.74ZM123.575 32H111.213V22.452H123.575V23.824H112.921V26.554H123.309V27.716H112.921V30.628H123.575V32ZM128.082 27.24C128.082 29.564 129.286 30.67 133.22 30.67C135.474 30.67 137.84 30.25 139.45 29.9L139.772 31.342C137.924 31.79 135.418 32.168 133.164 32.168C128.39 32.168 126.374 30.558 126.374 27.24C126.374 23.908 128.39 22.312 133.164 22.312C135.418 22.312 137.924 22.69 139.772 23.138L139.45 24.58C137.84 24.23 135.474 23.796 133.22 23.796C129.286 23.796 128.082 24.916 128.082 27.24ZM147.988 23.922H142.234V22.452H155.45V23.922H149.696V32H147.988V23.922ZM170.485 29.466C170.485 31.37 169.169 32.168 164.577 32.168C162.393 32.168 159.705 31.86 158.067 31.482L158.305 30.082C160.111 30.474 162.687 30.796 164.969 30.796C168.245 30.796 168.861 30.418 168.861 29.424C168.861 28.374 168.231 28.206 167.027 28.08L161.581 27.604C159.131 27.422 157.913 26.778 157.913 25.028C157.913 23.054 159.495 22.298 163.807 22.298C165.627 22.298 168.315 22.564 170.051 22.928L169.771 24.258C168.147 23.936 165.501 23.67 163.457 23.67C160.153 23.67 159.537 24.006 159.537 24.986C159.537 25.91 160.223 26.078 161.511 26.218L166.817 26.666C169.155 26.848 170.485 27.45 170.485 29.466Z" fill="white"/>
<defs>
<clipPath id="clip0_423_164">
<rect width="41" height="31" fill="white" transform="translate(0 2.5)"/>
</clipPath>
</defs>
</svg>
