<svg width="1680" height="934" viewBox="0 0 1680 934" fill="none" xmlns="http://www.w3.org/2000/svg">
<mask id="mask0_463_526" style="mask-type:luminance" maskUnits="userSpaceOnUse" x="0" y="0" width="1680" height="934">
<path d="M0 933.225L1680 933.225L1680 0.000305176L0 0.000305176L0 933.225Z" fill="white"/>
</mask>
<g mask="url(#mask0_463_526)">
<path d="M-0.000976562 933.223L1680 933.223L1680 -0.00164795L-0.000976562 -0.00164795L-0.000976562 933.223Z" fill="#060606"/>
<path d="M1393.73 725.373H1520.17V603.901H1393.73V725.373Z" fill="url(#paint0_linear_463_526)" fill-opacity="0.02"/>
<path d="M1150.33 366.979H1270.5V253.504H1150.33V366.979Z" fill="url(#paint1_linear_463_526)" fill-opacity="0.02"/>
<path d="M280.723 373.721H407.166V252.249H280.723V373.721Z" fill="url(#paint2_linear_463_526)" fill-opacity="0.02"/>
<path d="M1146.39 847.836H1272.83V726.363H1146.39V847.836Z" fill="url(#paint3_linear_463_526)" fill-opacity="0.02"/>
<path d="M1764.39 1318.58H1887.67V1200.15M1764.39 1318.58V1200.15M1764.39 1318.58H1641.11M1887.67 1200.15H1764.39M1887.67 1200.15V1081.71M1764.39 1200.15H1641.11M1764.39 1200.15V1081.71M1641.11 1318.58V1200.15M1641.11 1318.58H1517.83M1641.11 1200.15H1517.83M1641.11 1200.15V1081.71M1764.39 1081.71H1887.67M1764.39 1081.71H1641.11M1764.39 1081.71V963.277M1887.67 1081.71V963.277M1517.83 1318.58V1200.15M1517.83 1318.58H1394.55M1517.83 1200.15H1394.55M1517.83 1200.15V1081.71M1641.11 1081.71H1517.83M1641.11 1081.71V963.277M1394.55 1318.58V1200.15M1394.55 1318.58H1271.28M1394.55 1200.15H1271.28M1394.55 1200.15V1081.71M1517.83 1081.71H1394.55M1517.83 1081.71V963.277M1271.28 1318.58V1200.15M1271.28 1318.58H1148M1271.28 1200.15H1148M1271.28 1200.15V1081.71M1394.55 1081.71H1271.28M1394.55 1081.71V963.277M1148 1318.58V1200.15M1148 1318.58H1024.72M1148 1200.15H1024.72M1148 1200.15V1081.71M1271.28 1081.71H1148M1271.28 1081.71V963.277M1024.72 1318.58V1200.15M1024.72 1318.58L901.444 1318.58M1024.72 1200.15H901.444M1024.72 1200.15V1081.71M1148 1081.71H1024.72M1148 1081.71V963.277M901.444 1318.58V1200.15M901.444 1318.58H778.166M901.444 1200.15L778.166 1200.15M901.444 1200.15V1081.71M1024.72 1081.71H901.444M1024.72 1081.71V963.277M778.166 1318.58V1200.15M778.166 1318.58H654.888M778.166 1200.15H654.888M778.166 1200.15V1081.71M901.444 1081.71L778.166 1081.71M901.444 1081.71V963.277M654.888 1318.58V1200.15M654.888 1318.58H531.611M654.888 1200.15H531.611M654.888 1200.15V1081.71M778.166 1081.71H654.888M778.166 1081.71V963.277M531.611 1318.58V1200.15M531.611 1318.58H408.333M531.611 1200.15H408.333M531.611 1200.15V1081.71M654.888 1081.71H531.611M654.888 1081.71V963.277M408.333 1318.58V1200.15M408.333 1318.58H285.051M408.333 1200.15H285.051M408.333 1200.15V1081.71M531.611 1081.71H408.333M531.611 1081.71V963.277M285.051 1318.58V1200.15M285.051 1318.58H161.781M285.051 1200.15H161.781M285.051 1200.15V1081.71M408.333 1081.71H285.051M408.333 1081.71V963.277M161.781 1318.58V1200.15M161.781 1318.58H38.4994M161.781 1200.15H38.4994M161.781 1200.15V1081.71M285.051 1081.71H161.781M285.051 1081.71V963.277M38.4994 1318.58V1200.15M38.4994 1318.58H-84.7823M38.4994 1200.15H-84.7823M38.4994 1200.15V1081.71M161.781 1081.71H38.4994M161.781 1081.71V963.277M-84.7823 1318.58V1200.15M-84.7823 1318.58H-208.052V1200.15M-84.7823 1200.15H-208.052M-84.7823 1200.15V1081.71M38.4994 1081.71H-84.7823M38.4994 1081.71V963.277M-208.052 1200.15V1081.71M-84.7823 1081.71H-208.052M-84.7823 1081.71V963.277M-208.052 1081.71V963.277M1764.39 963.277H1887.67M1764.39 963.277H1641.11M1764.39 963.277V844.841M1887.67 963.277V844.841M1641.11 963.277H1517.83M1641.11 963.277V844.841M1517.83 963.277H1394.55M1517.83 963.277V844.841M1394.55 963.277H1271.28M1394.55 963.277V844.841M1271.28 963.277L1148 963.277M1271.28 963.277V844.841M1148 963.277H1024.72M1148 963.277V844.841M1024.72 963.277H901.444M1024.72 963.277V844.841M901.444 963.277H778.166M901.444 963.277L901.444 844.841M778.166 963.277L654.888 963.277M778.166 963.277V844.841M654.888 963.277H531.611M654.888 963.277V844.841M531.611 963.277H408.333M531.611 963.277V844.841M408.333 963.277H285.051M408.333 963.277V844.841M285.051 963.277H161.781M285.051 963.277V844.841M161.781 963.277H38.4994M161.781 963.277V844.841M38.4994 963.277H-84.7823M38.4994 963.277V844.841M-84.7823 963.277H-208.052M-84.7823 963.277V844.841M-208.052 963.277V844.841M1764.39 844.841H1887.67M1764.39 844.841H1641.11M1764.39 844.841V726.405M1887.67 844.841V726.405M1641.11 844.841H1517.83M1641.11 844.841V726.405M1517.83 844.841H1394.55M1517.83 844.841V726.405M1394.55 844.841H1271.28M1394.55 844.841V726.405M1271.28 844.841L1148 844.841M1271.28 844.841V726.405M1148 844.841H1024.72M1148 844.841V726.405M1024.72 844.841H901.444M1024.72 844.841V726.405M901.444 844.841H778.166M901.444 844.841V726.405M778.166 844.841L654.888 844.841M778.166 844.841V726.405M654.888 844.841H531.611M654.888 844.841V726.405M531.611 844.841H408.333M531.611 844.841V726.405M408.333 844.841H285.051M408.333 844.841V726.405M285.051 844.841H161.781M285.051 844.841V726.405M161.781 844.841H38.4994M161.781 844.841V726.405M38.4994 844.841H-84.7823M38.4994 844.841V726.405M-84.7823 844.841H-208.052M-84.7823 844.841V726.405M-208.052 844.841V726.405M1764.39 726.405H1887.67M1764.39 726.405H1641.11M1764.39 726.405V607.97M1887.67 726.405V607.97M1641.11 726.405H1517.83M1641.11 726.405V607.97M1517.83 726.405L1394.55 726.405M1517.83 726.405V607.97M1394.55 726.405H1271.28M1394.55 726.405V607.97M1271.28 726.405H1148M1271.28 726.405V607.97M1148 726.405H1024.72M1148 726.405V607.97M1024.72 726.405H901.444M1024.72 726.405V607.97M901.444 726.405H778.166M901.444 726.405V607.97M778.166 726.405H654.888M778.166 726.405V607.97M654.888 726.405H531.611M654.888 726.405V607.97M531.611 726.405L408.333 726.405M531.611 726.405V607.97M408.333 726.405H285.051M408.333 726.405V607.97M285.051 726.405H161.781M285.051 726.405V607.97M161.781 726.405H38.4994M161.781 726.405V607.97M38.4994 726.405H-84.7823M38.4994 726.405V607.97M-84.7823 726.405H-208.052M-84.7823 726.405V607.97M-208.052 726.405V607.97M1764.39 607.97H1887.67M1764.39 607.97H1641.11M1764.39 607.97V489.534M1887.67 607.97V489.534M1641.11 607.97H1517.83M1641.11 607.97V489.534M1517.83 607.97L1394.55 607.97M1517.83 607.97V489.534M1394.55 607.97H1271.28M1394.55 607.97V489.534M1271.28 607.97H1148M1271.28 607.97V489.534M1148 607.97H1024.72M1148 607.97V489.534M1024.72 607.97H901.444M1024.72 607.97V489.534M901.444 607.97H778.166M901.444 607.97V489.534M778.166 607.97H654.888M778.166 607.97V489.534M654.888 607.97H531.611M654.888 607.97V489.534M531.611 607.97L408.333 607.97M531.611 607.97V489.534M408.333 607.97H285.051M408.333 607.97V489.534M285.051 607.97H161.781M285.051 607.97V489.534M161.781 607.97H38.4994M161.781 607.97V489.534M38.4994 607.97H-84.7823M38.4994 607.97V489.534M-84.7823 607.97H-208.052M-84.7823 607.97V489.534M-208.052 607.97V489.534M1764.39 489.534H1887.67M1764.39 489.534H1641.11M1764.39 489.534V371.099M1887.67 489.534L1887.67 371.099M1641.11 489.534H1517.83M1641.11 489.534V371.099M1517.83 489.534L1394.55 489.534M1517.83 489.534V371.099M1394.55 489.534H1271.28M1394.55 489.534V371.099M1271.28 489.534H1148M1271.28 489.534V371.099M1148 489.534H1024.72M1148 489.534V371.099M1024.72 489.534H901.444M1024.72 489.534V371.099M901.444 489.534H778.166M901.444 489.534V371.099M778.166 489.534H654.888M778.166 489.534L778.166 371.099M654.888 489.534H531.611M654.888 489.534L654.888 371.099M531.611 489.534L408.333 489.534M531.611 489.534L531.611 371.099M408.333 489.534H285.051M408.333 489.534L408.333 371.099M285.051 489.534H161.781M285.051 489.534L285.051 371.099M161.781 489.534H38.4994M161.781 489.534L161.781 371.099M38.4994 489.534H-84.7823M38.4994 489.534L38.4994 371.099M-84.7823 489.534H-208.052M-84.7823 489.534L-84.7823 371.099M-208.052 489.534V371.099M1764.39 371.099H1887.67M1764.39 371.099H1641.11M1764.39 371.099L1764.39 252.663M1887.67 371.099V252.663M1641.11 371.099H1517.83M1641.11 371.099L1641.11 252.663M1517.83 371.099L1394.55 371.099M1517.83 371.099V252.663M1394.55 371.099H1271.28M1394.55 371.099V252.663M1271.28 371.099H1148M1271.28 371.099V252.663M1148 371.099H1024.72M1148 371.099V252.663M1024.72 371.099H901.444M1024.72 371.099V252.663M901.444 371.099H778.166M901.444 371.099V252.663M778.166 371.099H654.888M778.166 371.099V252.663M654.888 371.099H531.611M654.888 371.099V252.663M531.611 371.099L408.333 371.099M531.611 371.099V252.663M408.333 371.099H285.051M408.333 371.099V252.663M285.051 371.099H161.781M285.051 371.099V252.663M161.781 371.099H38.4994M161.781 371.099V252.663M38.4994 371.099H-84.7823M38.4994 371.099V252.663M-84.7823 371.099H-208.052M-84.7823 371.099V252.663M-208.052 371.099V252.663M1764.39 252.663H1887.67M1764.39 252.663H1641.11M1764.39 252.663V134.228M1887.67 252.663V134.228M1641.11 252.663H1517.83M1641.11 252.663V134.228M1517.83 252.663H1394.55M1517.83 252.663L1517.83 134.228M1394.55 252.663H1271.28M1394.55 252.663L1394.55 134.228M1271.28 252.663H1148M1271.28 252.663V134.228M1148 252.663H1024.72M1148 252.663V134.228M1024.72 252.663L901.444 252.663M1024.72 252.663V134.228M901.444 252.663H778.166M901.444 252.663V134.228M778.166 252.663H654.888M778.166 252.663V134.228M654.888 252.663H531.611M654.888 252.663V134.228M531.611 252.663H408.333M531.611 252.663V134.228M408.333 252.663H285.051M408.333 252.663V134.228M285.051 252.663H161.781M285.051 252.663V134.228M161.781 252.663H38.4994M161.781 252.663V134.228M38.4994 252.663H-84.7823M38.4994 252.663V134.228M-84.7823 252.663H-208.052M-84.7823 252.663V134.228M-208.052 252.663V134.228M1764.39 134.228H1887.67M1764.39 134.228H1641.11M1764.39 134.228V15.7924M1887.67 134.228V15.7924M1641.11 134.228H1517.83M1641.11 134.228V15.7924M1517.83 134.228H1394.55M1517.83 134.228V15.7924M1394.55 134.228H1271.28M1394.55 134.228V15.7924M1271.28 134.228H1148M1271.28 134.228V15.7924M1148 134.228H1024.72M1148 134.228V15.7924M1024.72 134.228L901.444 134.228M1024.72 134.228V15.7924M901.444 134.228H778.166M901.444 134.228V15.7924M778.166 134.228H654.888M778.166 134.228V15.7924M654.888 134.228H531.611M654.888 134.228V15.7924M531.611 134.228H408.333M531.611 134.228V15.7924M408.333 134.228H285.051M408.333 134.228V15.7924M285.051 134.228H161.781M285.051 134.228V15.7924M161.781 134.228H38.4994M161.781 134.228V15.7924M38.4994 134.228H-84.7823M38.4994 134.228V15.7924M-84.7823 134.228H-208.052M-84.7823 134.228V15.7924M-208.052 134.228V15.7924M1764.39 15.7924H1887.67M1764.39 15.7924H1641.11M1764.39 15.7924V-102.644M1887.67 15.7924V-102.644H1764.39M1641.11 15.7924H1517.83M1641.11 15.7924V-102.644M1517.83 15.7924H1394.55M1517.83 15.7924V-102.644M1394.55 15.7924H1271.28M1394.55 15.7924V-102.644M1271.28 15.7924H1148M1271.28 15.7924L1271.28 -102.644M1148 15.7924H1024.72M1148 15.7924L1148 -102.644M1024.72 15.7924L901.444 15.7924M1024.72 15.7924L1024.72 -102.644M901.444 15.7924H778.166M901.444 15.7924L901.444 -102.644M778.166 15.7924H654.888M778.166 15.7924V-102.644M654.888 15.7924H531.611M654.888 15.7924V-102.644M531.611 15.7924H408.333M531.611 15.7924V-102.644M408.333 15.7924H285.051M408.333 15.7924V-102.644M285.051 15.7924H161.781M285.051 15.7924V-102.644M161.781 15.7924H38.4994M161.781 15.7924V-102.644M38.4994 15.7924H-84.7823M38.4994 15.7924V-102.644M-84.7823 15.7924H-208.052M-84.7823 15.7924V-102.644M-208.052 15.7924V-102.644H-84.7823M1764.39 -102.644H1641.11M1641.11 -102.644H1517.83M1517.83 -102.644H1394.55M1394.55 -102.644H1271.28M1271.28 -102.644H1148M1148 -102.644H1024.72M1024.72 -102.644L901.444 -102.644M901.444 -102.644H778.166M778.166 -102.644H654.888M654.888 -102.644H531.611M531.611 -102.644H408.333M408.333 -102.644H285.051M285.051 -102.644H161.781M161.781 -102.644H38.4994M38.4994 -102.644H-84.7823" stroke="url(#paint4_radial_463_526)" stroke-opacity="0.08" stroke-width="2"/>
<path d="M529.227 848.959H655.666V727.486H529.227V848.959Z" fill="url(#paint5_linear_463_526)" fill-opacity="0.02"/>
<path d="M160.952 57.374C160.308 57.374 159.786 57.8962 159.786 58.5405C159.786 59.1848 160.308 59.707 160.952 59.707C161.597 59.707 162.119 59.1848 162.119 58.5405C162.119 57.8962 161.597 57.374 160.952 57.374Z" fill="white" fill-opacity="0.05"/>
<path d="M121.146 354.003C120.502 354.003 119.979 354.525 119.979 355.169C119.979 355.814 120.502 356.336 121.146 356.336C121.79 356.336 122.312 355.814 122.312 355.169C122.312 354.525 121.79 354.003 121.146 354.003Z" fill="white" fill-opacity="0.15"/>
<path d="M121.648 283.866C121.003 283.866 120.481 284.388 120.481 285.033C120.481 285.677 121.003 286.199 121.648 286.199C122.292 286.199 122.814 285.677 122.814 285.033C122.814 284.388 122.292 283.866 121.648 283.866Z" fill="white" fill-opacity="0.1"/>
<path d="M570.469 314.349C569.825 314.349 569.302 314.871 569.302 315.515C569.302 316.159 569.825 316.682 570.469 316.682C571.113 316.682 571.636 316.159 571.636 315.515C571.636 314.871 571.113 314.349 570.469 314.349Z" fill="white" fill-opacity="0.1"/>
<path d="M1019.89 683.724C1019.25 683.724 1018.72 684.246 1018.72 684.89C1018.72 685.534 1019.25 686.057 1019.89 686.057C1020.53 686.057 1021.06 685.534 1021.06 684.89C1021.06 684.246 1020.53 683.724 1019.89 683.724Z" fill="white" fill-opacity="0.1"/>
<path d="M1032.94 7.8935C1032.29 7.8935 1031.77 8.41578 1031.77 9.06003C1031.77 9.70429 1032.29 10.2266 1032.94 10.2266C1033.58 10.2266 1034.11 9.70429 1034.11 9.06003C1034.11 8.41578 1033.58 7.8935 1032.94 7.8935Z" fill="white" fill-opacity="0.15"/>
<path d="M1197.11 611.284C1196.46 611.284 1195.94 611.806 1195.94 612.451C1195.94 613.095 1196.46 613.617 1197.11 613.617C1197.75 613.617 1198.27 613.095 1198.27 612.451C1198.27 611.806 1197.75 611.284 1197.11 611.284Z" fill="white" fill-opacity="0.25"/>
<path d="M91.2093 544.407C90.565 544.407 90.0426 544.929 90.0426 545.574C90.0426 546.218 90.565 546.74 91.2093 546.74C91.8536 546.74 92.376 546.218 92.376 545.574C92.376 544.929 91.8536 544.407 91.2093 544.407Z" fill="white" fill-opacity="0.1"/>
<path d="M233.438 602.186C232.793 602.186 232.271 602.709 232.271 603.353C232.271 603.997 232.793 604.52 233.438 604.52C234.082 604.52 234.604 603.997 234.604 603.353C234.604 602.709 234.082 602.186 233.438 602.186Z" fill="white"/>
<path d="M1367.63 773.372C1366.99 773.372 1366.47 773.894 1366.47 774.539C1366.47 775.183 1366.99 775.705 1367.63 775.705C1368.28 775.705 1368.8 775.183 1368.8 774.539C1368.8 773.894 1368.28 773.372 1367.63 773.372Z" fill="white" fill-opacity="0.25"/>
<path d="M1324.21 199.296C1323.57 199.296 1323.04 199.818 1323.04 200.462C1323.04 201.107 1323.57 201.629 1324.21 201.629C1324.86 201.629 1325.38 201.107 1325.38 200.462C1325.38 199.818 1324.86 199.296 1324.21 199.296Z" fill="white" fill-opacity="0.1"/>
<path d="M1117.59 149.192C1116.94 149.192 1116.42 149.715 1116.42 150.359C1116.42 151.003 1116.94 151.525 1117.59 151.525C1118.23 151.525 1118.75 151.003 1118.75 150.359C1118.75 149.715 1118.23 149.192 1117.59 149.192Z" fill="white" fill-opacity="0.05"/>
<path d="M809.65 122.872C809.005 122.872 808.483 123.394 808.483 124.039C808.483 124.683 809.005 125.205 809.65 125.205C810.294 125.205 810.816 124.683 810.816 124.039C810.816 123.394 810.294 122.872 809.65 122.872Z" fill="white" fill-opacity="0.1"/>
<path d="M326.922 387.542C326.278 387.542 325.756 388.064 325.756 388.708C325.756 389.353 326.278 389.875 326.922 389.875C327.567 389.875 328.089 389.353 328.089 388.708C328.089 388.064 327.567 387.542 326.922 387.542Z" fill="white" fill-opacity="0.05"/>
<path d="M1621.8 720.958C1621.15 720.958 1620.63 721.48 1620.63 722.124C1620.63 722.769 1621.15 723.291 1621.8 723.291C1622.44 723.291 1622.97 722.769 1622.97 722.124C1622.97 721.48 1622.44 720.958 1621.8 720.958Z" fill="white" fill-opacity="0.05"/>
<path d="M460.938 315.979C460.293 315.979 459.771 316.502 459.771 317.146C459.771 317.79 460.293 318.312 460.938 318.312C461.582 318.312 462.104 317.79 462.104 317.146C462.104 316.502 461.582 315.979 460.938 315.979Z" fill="white" fill-opacity="0.25"/>
<path d="M1153.28 613.642C1152.64 613.642 1152.11 614.164 1152.11 614.808C1152.11 615.452 1152.64 615.975 1153.28 615.975C1153.92 615.975 1154.45 615.452 1154.45 614.808C1154.45 614.164 1153.92 613.642 1153.28 613.642Z" fill="white" fill-opacity="0.15"/>
<path d="M1307.91 662.214C1307.27 662.214 1306.75 662.736 1306.75 663.38C1306.75 664.025 1307.27 664.547 1307.91 664.547C1308.56 664.547 1309.08 664.025 1309.08 663.38C1309.08 662.736 1308.56 662.214 1307.91 662.214Z" fill="white" fill-opacity="0.15"/>
<path d="M187.285 82.3642C186.64 82.3642 186.118 82.8865 186.118 83.5307C186.118 84.175 186.64 84.6973 187.285 84.6973C187.929 84.6973 188.451 84.175 188.451 83.5307C188.451 82.8865 187.929 82.3642 187.285 82.3642Z" fill="white" fill-opacity="0.05"/>
<path d="M934.64 563.849C933.996 563.849 933.473 564.371 933.473 565.015C933.473 565.659 933.996 566.182 934.64 566.182C935.284 566.182 935.807 565.659 935.807 565.015C935.807 564.371 935.284 563.849 934.64 563.849Z" fill="white" fill-opacity="0.25"/>
<path d="M283.15 917.077C282.505 917.077 281.983 917.599 281.983 918.244C281.983 918.888 282.505 919.41 283.15 919.41C283.794 919.41 284.316 918.888 284.316 918.244C284.316 917.599 283.794 917.077 283.15 917.077Z" fill="white" fill-opacity="0.25"/>
<path d="M1088.82 573.175C1088.18 573.175 1087.65 573.697 1087.65 574.341C1087.65 574.986 1088.18 575.508 1088.82 575.508C1089.47 575.508 1089.99 574.986 1089.99 574.341C1089.99 573.697 1089.47 573.175 1088.82 573.175Z" fill="white" fill-opacity="0.05"/>
<path d="M1117.32 585.792C1116.68 585.792 1116.15 586.314 1116.15 586.958C1116.15 587.603 1116.68 588.125 1117.32 588.125C1117.96 588.125 1118.49 587.603 1118.49 586.958C1118.49 586.314 1117.96 585.792 1117.32 585.792Z" fill="white" fill-opacity="0.1"/>
<path d="M1138.44 138.767C1137.8 138.767 1137.27 139.289 1137.27 139.933C1137.27 140.577 1137.8 141.1 1138.44 141.1C1139.08 141.1 1139.61 140.577 1139.61 139.933C1139.61 139.289 1139.08 138.767 1138.44 138.767Z" fill="white" fill-opacity="0.25"/>
<path d="M174.999 125.868C174.355 125.868 173.833 126.39 173.833 127.035C173.833 127.679 174.355 128.201 174.999 128.201C175.644 128.201 176.166 127.679 176.166 127.035C176.166 126.39 175.644 125.868 174.999 125.868Z" fill="white" fill-opacity="0.1"/>
<path d="M206.523 885.503C205.878 885.503 205.356 886.025 205.356 886.669C205.356 887.314 205.878 887.836 206.523 887.836C207.167 887.836 207.689 887.314 207.689 886.669C207.689 886.025 207.167 885.503 206.523 885.503Z" fill="white" fill-opacity="0.25"/>
<path d="M484.353 718.983C483.709 718.983 483.186 719.506 483.186 720.15C483.186 720.794 483.709 721.316 484.353 721.316C484.997 721.316 485.52 720.794 485.52 720.15C485.52 719.506 484.997 718.983 484.353 718.983Z" fill="white" fill-opacity="0.15"/>
<path d="M521.222 501.186C520.578 501.186 520.055 501.709 520.055 502.353C520.055 502.997 520.578 503.52 521.222 503.52C521.866 503.52 522.389 502.997 522.389 502.353C522.389 501.709 521.866 501.186 521.222 501.186Z" fill="white" fill-opacity="0.05"/>
<path d="M559.692 202.54C559.047 202.54 558.525 203.062 558.525 203.707C558.525 204.351 559.047 204.873 559.692 204.873C560.336 204.873 560.858 204.351 560.858 203.707C560.858 203.062 560.336 202.54 559.692 202.54Z" fill="white"/>
<path d="M322.14 44.3212C321.496 44.3212 320.973 44.8435 320.973 45.4878C320.973 46.132 321.496 46.6543 322.14 46.6543C322.784 46.6543 323.307 46.132 323.307 45.4878C323.307 44.8435 322.784 44.3212 322.14 44.3212Z" fill="white" fill-opacity="0.25"/>
<path d="M1312.18 18.704C1311.54 18.704 1311.02 19.2263 1311.02 19.8706C1311.02 20.5148 1311.54 21.0371 1312.18 21.0371C1312.83 21.0371 1313.35 20.5148 1313.35 19.8706C1313.35 19.2263 1312.83 18.704 1312.18 18.704Z" fill="white" fill-opacity="0.05"/>
<path d="M450.858 227.981C450.213 227.981 449.691 228.504 449.691 229.148C449.691 229.792 450.213 230.314 450.858 230.314C451.502 230.314 452.024 229.792 452.024 229.148C452.024 228.504 451.502 227.981 450.858 227.981Z" fill="white" fill-opacity="0.25"/>
<path d="M840.259 735.611C839.937 735.611 839.676 735.872 839.676 736.194C839.676 736.516 839.937 736.777 840.259 736.777C840.582 736.777 840.843 736.516 840.843 736.194C840.843 735.872 840.582 735.611 840.259 735.611Z" fill="white" fill-opacity="0.05"/>
<path d="M1200.3 844.234C1199.98 844.234 1199.72 844.495 1199.72 844.817C1199.72 845.139 1199.98 845.4 1200.3 845.4C1200.62 845.4 1200.88 845.139 1200.88 844.817C1200.88 844.495 1200.62 844.234 1200.3 844.234Z" fill="white" fill-opacity="0.05"/>
<path d="M1041.5 762.064C1041.18 762.064 1040.92 762.325 1040.92 762.647C1040.92 762.969 1041.18 763.23 1041.5 763.23C1041.83 763.23 1042.09 762.969 1042.09 762.647C1042.09 762.325 1041.83 762.064 1041.5 762.064Z" fill="white" fill-opacity="0.1"/>
<path d="M856.551 234.064C856.229 234.064 855.968 234.325 855.968 234.647C855.968 234.969 856.229 235.23 856.551 235.23C856.874 235.23 857.135 234.969 857.135 234.647C857.135 234.325 856.874 234.064 856.551 234.064Z" fill="white" fill-opacity="0.1"/>
<path d="M457.974 187.615C457.652 187.615 457.391 187.876 457.391 188.198C457.391 188.52 457.652 188.781 457.974 188.781C458.296 188.781 458.558 188.52 458.558 188.198C458.558 187.876 458.296 187.615 457.974 187.615Z" fill="white" fill-opacity="0.25"/>
<path d="M520.264 839.152C519.942 839.152 519.681 839.413 519.681 839.735C519.681 840.057 519.942 840.318 520.264 840.318C520.586 840.318 520.848 840.057 520.848 839.735C520.848 839.413 520.586 839.152 520.264 839.152Z" fill="white" fill-opacity="0.15"/>
<path d="M931.541 148.724C931.219 148.724 930.957 148.985 930.957 149.307C930.957 149.629 931.219 149.891 931.541 149.891C931.863 149.891 932.124 149.629 932.124 149.307C932.124 148.985 931.863 148.724 931.541 148.724Z" fill="white" fill-opacity="0.25"/>
<path d="M1592.11 670.224C1591.78 670.224 1591.52 670.485 1591.52 670.807C1591.52 671.129 1591.78 671.391 1592.11 671.391C1592.43 671.391 1592.69 671.129 1592.69 670.807C1592.69 670.485 1592.43 670.224 1592.11 670.224Z" fill="white" fill-opacity="0.05"/>
<path d="M1356.11 472.193C1355.79 472.193 1355.53 472.454 1355.53 472.776C1355.53 473.098 1355.79 473.359 1356.11 473.359C1356.43 473.359 1356.7 473.098 1356.7 472.776C1356.7 472.454 1356.43 472.193 1356.11 472.193Z" fill="white" fill-opacity="0.1"/>
<path d="M441.559 120.306C441.237 120.306 440.976 120.567 440.976 120.889C440.976 121.212 441.237 121.473 441.559 121.473C441.881 121.473 442.143 121.212 442.143 120.889C442.143 120.567 441.881 120.306 441.559 120.306Z" fill="white" fill-opacity="0.25"/>
<path d="M138.389 621.113C138.067 621.113 137.806 621.374 137.806 621.696C137.806 622.018 138.067 622.279 138.389 622.279C138.711 622.279 138.973 622.018 138.973 621.696C138.973 621.374 138.711 621.113 138.389 621.113Z" fill="white" fill-opacity="0.05"/>
<path d="M1104.11 194.357C1103.79 194.357 1103.52 194.618 1103.52 194.94C1103.52 195.262 1103.79 195.523 1104.11 195.523C1104.43 195.523 1104.69 195.262 1104.69 194.94C1104.69 194.618 1104.43 194.357 1104.11 194.357Z" fill="white" fill-opacity="0.05"/>
<path d="M1154.14 14.4038C1153.82 14.4038 1153.56 14.6649 1153.56 14.987C1153.56 15.3092 1153.82 15.5703 1154.14 15.5703C1154.46 15.5703 1154.72 15.3092 1154.72 14.987C1154.72 14.6649 1154.46 14.4038 1154.14 14.4038Z" fill="white"/>
<path d="M1244.69 313.048C1244.37 313.048 1244.11 313.309 1244.11 313.632C1244.11 313.954 1244.37 314.215 1244.69 314.215C1245.01 314.215 1245.28 313.954 1245.28 313.632C1245.28 313.309 1245.01 313.048 1244.69 313.048Z" fill="white" fill-opacity="0.05"/>
<path d="M1501.67 192.902C1501.35 192.902 1501.09 193.163 1501.09 193.485C1501.09 193.807 1501.35 194.068 1501.67 194.068C1501.99 194.068 1502.25 193.807 1502.25 193.485C1502.25 193.163 1501.99 192.902 1501.67 192.902Z" fill="white" fill-opacity="0.05"/>
<path d="M856.143 237.634C855.821 237.634 855.56 237.895 855.56 238.218C855.56 238.54 855.821 238.801 856.143 238.801C856.465 238.801 856.727 238.54 856.727 238.218C856.727 237.895 856.465 237.634 856.143 237.634Z" fill="white" fill-opacity="0.05"/>
<path d="M582.021 127.791C581.699 127.791 581.438 128.052 581.438 128.374C581.438 128.696 581.699 128.957 582.021 128.957C582.343 128.957 582.604 128.696 582.604 128.374C582.604 128.052 582.343 127.791 582.021 127.791Z" fill="white"/>
<path d="M98.2096 13.5835C97.8875 13.5835 97.6263 13.8446 97.6263 14.1667C97.6263 14.4889 97.8875 14.75 98.2096 14.75C98.5318 14.75 98.793 14.4889 98.793 14.1667C98.793 13.8446 98.5318 13.5835 98.2096 13.5835Z" fill="white" fill-opacity="0.1"/>
<path d="M698.767 669.781C698.445 669.781 698.184 670.042 698.184 670.364C698.184 670.686 698.445 670.947 698.767 670.947C699.089 670.947 699.351 670.686 699.351 670.364C699.351 670.042 699.089 669.781 698.767 669.781Z" fill="white" fill-opacity="0.25"/>
<path d="M1286.62 128.349C1286.3 128.349 1286.04 128.61 1286.04 128.932C1286.04 129.254 1286.3 129.516 1286.62 129.516C1286.94 129.516 1287.21 129.254 1287.21 128.932C1287.21 128.61 1286.94 128.349 1286.62 128.349Z" fill="white"/>
<path d="M1186.36 375.619C1186.04 375.619 1185.78 375.88 1185.78 376.202C1185.78 376.524 1186.04 376.785 1186.36 376.785C1186.69 376.785 1186.95 376.524 1186.95 376.202C1186.95 375.88 1186.69 375.619 1186.36 375.619Z" fill="white"/>
<path d="M226.041 912.005C225.719 912.005 225.457 912.266 225.457 912.589C225.457 912.911 225.719 913.172 226.041 913.172C226.363 913.172 226.624 912.911 226.624 912.589C226.624 912.266 226.363 912.005 226.041 912.005Z" fill="white" fill-opacity="0.1"/>
<path d="M1680.44 105.083C1680.12 105.083 1679.86 105.345 1679.86 105.667C1679.86 105.989 1680.12 106.25 1680.44 106.25C1680.76 106.25 1681.02 105.989 1681.02 105.667C1681.02 105.345 1680.76 105.083 1680.44 105.083Z" fill="white"/>
<path d="M547.398 0.308079C547.076 0.308079 546.815 0.569216 546.815 0.891344C546.815 1.21347 547.076 1.47461 547.398 1.47461C547.72 1.47461 547.981 1.21347 547.981 0.891344C547.981 0.569216 547.72 0.308079 547.398 0.308079Z" fill="white" fill-opacity="0.15"/>
<path d="M1072.07 552.587C1071.75 552.587 1071.49 552.849 1071.49 553.171C1071.49 553.493 1071.75 553.754 1072.07 553.754C1072.4 553.754 1072.66 553.493 1072.66 553.171C1072.66 552.849 1072.4 552.587 1072.07 552.587Z" fill="white" fill-opacity="0.1"/>
<path d="M573.788 146.712C573.466 146.712 573.204 146.974 573.204 147.296C573.204 147.618 573.466 147.879 573.788 147.879C574.11 147.879 574.371 147.618 574.371 147.296C574.371 146.974 574.11 146.712 573.788 146.712Z" fill="white" fill-opacity="0.05"/>
<path d="M698.869 831.091C698.547 831.091 698.285 831.352 698.285 831.675C698.285 831.997 698.547 832.258 698.869 832.258C699.191 832.258 699.452 831.997 699.452 831.675C699.452 831.352 699.191 831.091 698.869 831.091Z" fill="white" fill-opacity="0.25"/>
<path d="M618.112 923.232C617.79 923.232 617.529 923.493 617.529 923.815C617.529 924.137 617.79 924.398 618.112 924.398C618.434 924.398 618.695 924.137 618.695 923.815C618.695 923.493 618.434 923.232 618.112 923.232Z" fill="white" fill-opacity="0.25"/>
<path d="M1053.98 166.775C1053.66 166.775 1053.4 167.036 1053.4 167.358C1053.4 167.68 1053.66 167.941 1053.98 167.941C1054.31 167.941 1054.57 167.68 1054.57 167.358C1054.57 167.036 1054.31 166.775 1053.98 166.775Z" fill="white" fill-opacity="0.05"/>
<path d="M244.637 483.154C244.315 483.154 244.054 483.415 244.054 483.737C244.054 484.059 244.315 484.32 244.637 484.32C244.96 484.32 245.221 484.059 245.221 483.737C245.221 483.415 244.96 483.154 244.637 483.154Z" fill="white" fill-opacity="0.25"/>
<path d="M1604.97 904.05C1604.65 904.05 1604.39 904.311 1604.39 904.634C1604.39 904.956 1604.65 905.217 1604.97 905.217C1605.29 905.217 1605.55 904.956 1605.55 904.634C1605.55 904.311 1605.29 904.05 1604.97 904.05Z" fill="white" fill-opacity="0.25"/>
<path d="M1533.22 362.21C1532.9 362.21 1532.64 362.472 1532.64 362.794C1532.64 363.116 1532.9 363.377 1533.22 363.377C1533.54 363.377 1533.8 363.116 1533.8 362.794C1533.8 362.472 1533.54 362.21 1533.22 362.21Z" fill="white" fill-opacity="0.05"/>
<path d="M383.599 681.541C383.277 681.541 383.016 681.802 383.016 682.124C383.016 682.446 383.277 682.707 383.599 682.707C383.921 682.707 384.183 682.446 384.183 682.124C384.183 681.802 383.921 681.541 383.599 681.541Z" fill="white" fill-opacity="0.25"/>
<path d="M1024.21 774.634C1023.88 774.634 1023.62 774.895 1023.62 775.218C1023.62 775.54 1023.88 775.801 1024.21 775.801C1024.53 775.801 1024.79 775.54 1024.79 775.218C1024.79 774.895 1024.53 774.634 1024.21 774.634Z" fill="white" fill-opacity="0.15"/>
<path d="M345.205 820.251C344.883 820.251 344.621 820.513 344.621 820.835C344.621 821.157 344.883 821.418 345.205 821.418C345.527 821.418 345.788 821.157 345.788 820.835C345.788 820.513 345.527 820.251 345.205 820.251Z" fill="white" fill-opacity="0.05"/>
<path d="M403.689 196.445C403.367 196.445 403.106 196.706 403.106 197.028C403.106 197.35 403.367 197.611 403.689 197.611C404.011 197.611 404.272 197.35 404.272 197.028C404.272 196.706 404.011 196.445 403.689 196.445Z" fill="white" fill-opacity="0.15"/>
<path d="M338.927 856.025C338.605 856.025 338.344 856.286 338.344 856.608C338.344 856.93 338.605 857.191 338.927 857.191C339.25 857.191 339.511 856.93 339.511 856.608C339.511 856.286 339.25 856.025 338.927 856.025Z" fill="white"/>
<path d="M1110.01 691.119C1109.69 691.119 1109.43 691.38 1109.43 691.702C1109.43 692.024 1109.69 692.285 1110.01 692.285C1110.33 692.285 1110.59 692.024 1110.59 691.702C1110.59 691.38 1110.33 691.119 1110.01 691.119Z" fill="white" fill-opacity="0.15"/>
<path d="M1555.79 49.0913C1555.47 49.0913 1555.21 49.3524 1555.21 49.6745C1555.21 49.9967 1555.47 50.2578 1555.79 50.2578C1556.11 50.2578 1556.37 49.9967 1556.37 49.6745C1556.37 49.3524 1556.11 49.0913 1555.79 49.0913Z" fill="white" fill-opacity="0.05"/>
<path d="M763.753 177.468C763.43 177.468 763.169 177.729 763.169 178.052C763.169 178.374 763.43 178.635 763.753 178.635C764.075 178.635 764.336 178.374 764.336 178.052C764.336 177.729 764.075 177.468 763.753 177.468Z" fill="white" fill-opacity="0.25"/>
<path d="M908.855 332.714C908.533 332.714 908.272 332.975 908.272 333.298C908.272 333.62 908.533 333.881 908.855 333.881C909.177 333.881 909.438 333.62 909.438 333.298C909.438 332.975 909.177 332.714 908.855 332.714Z" fill="white" fill-opacity="0.25"/>
<path d="M1107.97 882.499C1107.64 882.499 1107.38 882.761 1107.38 883.083C1107.38 883.405 1107.64 883.666 1107.97 883.666C1108.29 883.666 1108.55 883.405 1108.55 883.083C1108.55 882.761 1108.29 882.499 1107.97 882.499Z" fill="white" fill-opacity="0.25"/>
<path d="M517.741 480.988C517.419 480.988 517.158 481.249 517.158 481.571C517.158 481.893 517.419 482.154 517.741 482.154C518.063 482.154 518.324 481.893 518.324 481.571C518.324 481.249 518.063 480.988 517.741 480.988Z" fill="white"/>
<path d="M97.0661 99.935C96.7439 99.935 96.4827 100.196 96.4827 100.518C96.4827 100.84 96.7439 101.102 97.0661 101.102C97.3882 101.102 97.6494 100.84 97.6494 100.518C97.6494 100.196 97.3882 99.935 97.0661 99.935Z" fill="white" fill-opacity="0.25"/>
<path d="M1595.67 79.3647C1595.35 79.3647 1595.08 79.6259 1595.08 79.948C1595.08 80.2701 1595.35 80.5312 1595.67 80.5312C1595.99 80.5312 1596.25 80.2701 1596.25 79.948C1596.25 79.6259 1595.99 79.3647 1595.67 79.3647Z" fill="white" fill-opacity="0.15"/>
<path d="M564.13 843.162C563.807 843.162 563.546 843.423 563.546 843.745C563.546 844.067 563.807 844.328 564.13 844.328C564.452 844.328 564.713 844.067 564.713 843.745C564.713 843.423 564.452 843.162 564.13 843.162Z" fill="white" fill-opacity="0.05"/>
<path d="M1538.51 305.562C1538.19 305.562 1537.92 305.823 1537.92 306.145C1537.92 306.467 1538.19 306.729 1538.51 306.729C1538.83 306.729 1539.09 306.467 1539.09 306.145C1539.09 305.823 1538.83 305.562 1538.51 305.562Z" fill="white" fill-opacity="0.25"/>
<path d="M141.749 251.033C141.427 251.033 141.165 251.294 141.165 251.616C141.165 251.938 141.427 252.199 141.749 252.199C142.071 252.199 142.332 251.938 142.332 251.616C142.332 251.294 142.071 251.033 141.749 251.033Z" fill="white" fill-opacity="0.25"/>
<path d="M226.823 823.445C226.501 823.445 226.24 823.706 226.24 824.028C226.24 824.35 226.501 824.611 226.823 824.611C227.145 824.611 227.406 824.35 227.406 824.028C227.406 823.706 227.145 823.445 226.823 823.445Z" fill="white" fill-opacity="0.1"/>
<path d="M393.003 377.238C392.68 377.238 392.419 377.499 392.419 377.821C392.419 378.143 392.68 378.404 393.003 378.404C393.325 378.404 393.586 378.143 393.586 377.821C393.586 377.499 393.325 377.238 393.003 377.238Z" fill="white" fill-opacity="0.05"/>
<path d="M1162.68 612.179C1162.36 612.179 1162.1 612.44 1162.1 612.762C1162.1 613.085 1162.36 613.346 1162.68 613.346C1163 613.346 1163.27 613.085 1163.27 612.762C1163.27 612.44 1163 612.179 1162.68 612.179Z" fill="white" fill-opacity="0.1"/>
<path d="M860.526 289.548C860.204 289.548 859.943 289.809 859.943 290.132C859.943 290.454 860.204 290.715 860.526 290.715C860.848 290.715 861.109 290.454 861.109 290.132C861.109 289.809 860.848 289.548 860.526 289.548Z" fill="white" fill-opacity="0.1"/>
<path d="M655.401 473.767C655.079 473.767 654.818 474.028 654.818 474.35C654.818 474.672 655.079 474.934 655.401 474.934C655.723 474.934 655.984 474.672 655.984 474.35C655.984 474.028 655.723 473.767 655.401 473.767Z" fill="white" fill-opacity="0.1"/>
<path d="M430.337 629.759C430.014 629.759 429.753 630.02 429.753 630.343C429.753 630.665 430.014 630.926 430.337 630.926C430.659 630.926 430.92 630.665 430.92 630.343C430.92 630.02 430.659 629.759 430.337 629.759Z" fill="white" fill-opacity="0.25"/>
<path d="M1352.68 201.91C1352.36 201.91 1352.1 202.171 1352.1 202.493C1352.1 202.815 1352.36 203.076 1352.68 203.076C1353 203.076 1353.27 202.815 1353.27 202.493C1353.27 202.171 1353 201.91 1352.68 201.91Z" fill="white" fill-opacity="0.05"/>
<path d="M695.979 200.691C695.657 200.691 695.396 200.952 695.396 201.274C695.396 201.596 695.657 201.857 695.979 201.857C696.301 201.857 696.562 201.596 696.562 201.274C696.562 200.952 696.301 200.691 695.979 200.691Z" fill="white"/>
<path d="M1544.23 743.472C1543.91 743.472 1543.65 743.733 1543.65 744.055C1543.65 744.378 1543.91 744.639 1544.23 744.639C1544.55 744.639 1544.82 744.378 1544.82 744.055C1544.82 743.733 1544.55 743.472 1544.23 743.472Z" fill="white" fill-opacity="0.05"/>
<path d="M661.924 201.621C661.602 201.621 661.341 201.882 661.341 202.204C661.341 202.526 661.602 202.787 661.924 202.787C662.247 202.787 662.508 202.526 662.508 202.204C662.508 201.882 662.247 201.621 661.924 201.621Z" fill="white" fill-opacity="0.25"/>
<path d="M1397.76 638.187C1397.44 638.187 1397.18 638.448 1397.18 638.77C1397.18 639.092 1397.44 639.354 1397.76 639.354C1398.09 639.354 1398.35 639.092 1398.35 638.77C1398.35 638.448 1398.09 638.187 1397.76 638.187Z" fill="white" fill-opacity="0.15"/>
<path d="M75.0749 233.708C74.7527 233.708 74.4915 233.97 74.4915 234.292C74.4915 234.614 74.7527 234.875 75.0749 234.875C75.397 234.875 75.6582 234.614 75.6582 234.292C75.6582 233.97 75.397 233.708 75.0749 233.708Z" fill="white" fill-opacity="0.25"/>
<path d="M1507.24 811.187C1506.92 811.187 1506.66 811.448 1506.66 811.77C1506.66 812.092 1506.92 812.354 1507.24 812.354C1507.57 812.354 1507.83 812.092 1507.83 811.77C1507.83 811.448 1507.57 811.187 1507.24 811.187Z" fill="white" fill-opacity="0.15"/>
<path d="M137.375 284.365C137.053 284.365 136.791 284.626 136.791 284.948C136.791 285.27 137.053 285.531 137.375 285.531C137.697 285.531 137.958 285.27 137.958 284.948C137.958 284.626 137.697 284.365 137.375 284.365Z" fill="white" fill-opacity="0.1"/>
<path d="M369.868 837.564C369.546 837.564 369.285 837.825 369.285 838.147C369.285 838.469 369.546 838.73 369.868 838.73C370.19 838.73 370.451 838.469 370.451 838.147C370.451 837.825 370.19 837.564 369.868 837.564Z" fill="white"/>
<path d="M1358.61 335.744C1358.29 335.744 1358.03 336.005 1358.03 336.327C1358.03 336.649 1358.29 336.91 1358.61 336.91C1358.94 336.91 1359.2 336.649 1359.2 336.327C1359.2 336.005 1358.94 335.744 1358.61 335.744Z" fill="white"/>
<path d="M949.616 281.279C949.294 281.279 949.033 281.54 949.033 281.862C949.033 282.184 949.294 282.445 949.616 282.445C949.938 282.445 950.199 282.184 950.199 281.862C950.199 281.54 949.938 281.279 949.616 281.279Z" fill="white" fill-opacity="0.05"/>
<path d="M662.647 338.839C662.325 338.839 662.064 339.1 662.064 339.423C662.064 339.745 662.325 340.006 662.647 340.006C662.969 340.006 663.23 339.745 663.23 339.423C663.23 339.1 662.969 338.839 662.647 338.839Z" fill="white" fill-opacity="0.25"/>
<path d="M645.796 418.115C645.473 418.115 645.212 418.376 645.212 418.698C645.212 419.02 645.473 419.281 645.796 419.281C646.118 419.281 646.379 419.02 646.379 418.698C646.379 418.376 646.118 418.115 645.796 418.115Z" fill="white"/>
<path d="M713.033 422.976C712.711 422.976 712.45 423.237 712.45 423.559C712.45 423.881 712.711 424.143 713.033 424.143C713.355 424.143 713.616 423.881 713.616 423.559C713.616 423.237 713.355 422.976 713.033 422.976Z" fill="white" fill-opacity="0.15"/>
<path d="M331.927 354.38C331.605 354.38 331.344 354.641 331.344 354.964C331.344 355.286 331.605 355.547 331.927 355.547C332.25 355.547 332.511 355.286 332.511 354.964C332.511 354.641 332.25 354.38 331.927 354.38Z" fill="white" fill-opacity="0.1"/>
<path d="M759.819 550.662C759.497 550.662 759.236 550.923 759.236 551.245C759.236 551.567 759.497 551.828 759.819 551.828C760.141 551.828 760.402 551.567 760.402 551.245C760.402 550.923 760.141 550.662 759.819 550.662Z" fill="white" fill-opacity="0.05"/>
<path d="M626.069 93.9975C625.747 93.9975 625.486 94.2587 625.486 94.5808C625.486 94.9029 625.747 95.1641 626.069 95.1641C626.391 95.1641 626.652 94.9029 626.652 94.5808C626.652 94.2587 626.391 93.9975 626.069 93.9975Z" fill="white" fill-opacity="0.05"/>
<path d="M326.036 533.953C325.714 533.953 325.452 534.214 325.452 534.536C325.452 534.858 325.714 535.119 326.036 535.119C326.358 535.119 326.619 534.858 326.619 534.536C326.619 534.214 326.358 533.953 326.036 533.953Z" fill="white"/>
<path d="M1577.08 706.515C1576.75 706.515 1576.49 706.776 1576.49 707.098C1576.49 707.421 1576.75 707.682 1577.08 707.682C1577.4 707.682 1577.66 707.421 1577.66 707.098C1577.66 706.776 1577.4 706.515 1577.08 706.515Z" fill="white" fill-opacity="0.25"/>
<path d="M1074.78 586.341C1074.46 586.341 1074.2 586.602 1074.2 586.925C1074.2 587.247 1074.46 587.508 1074.78 587.508C1075.1 587.508 1075.36 587.247 1075.36 586.925C1075.36 586.602 1075.1 586.341 1074.78 586.341Z" fill="white" fill-opacity="0.05"/>
<path d="M804.598 338.707C804.276 338.707 804.015 338.968 804.015 339.29C804.015 339.612 804.276 339.873 804.598 339.873C804.92 339.873 805.182 339.612 805.182 339.29C805.182 338.968 804.92 338.707 804.598 338.707Z" fill="white" fill-opacity="0.15"/>
<path d="M484.072 401.328C483.75 401.328 483.489 401.589 483.489 401.911C483.489 402.233 483.75 402.494 484.072 402.494C484.394 402.494 484.655 402.233 484.655 401.911C484.655 401.589 484.394 401.328 484.072 401.328Z" fill="white" fill-opacity="0.1"/>
<path d="M682.003 759.115C681.68 759.115 681.419 759.376 681.419 759.698C681.419 760.02 681.68 760.281 682.003 760.281C682.325 760.281 682.586 760.02 682.586 759.698C682.586 759.376 682.325 759.115 682.003 759.115Z" fill="white" fill-opacity="0.25"/>
<path d="M637.149 523.408C636.827 523.408 636.566 523.669 636.566 523.991C636.566 524.313 636.827 524.574 637.149 524.574C637.471 524.574 637.732 524.313 637.732 523.991C637.732 523.669 637.471 523.408 637.149 523.408Z" fill="white" fill-opacity="0.25"/>
<path d="M1535.08 566.167C1534.76 566.167 1534.5 566.429 1534.5 566.751C1534.5 567.073 1534.76 567.334 1535.08 567.334C1535.4 567.334 1535.66 567.073 1535.66 566.751C1535.66 566.429 1535.4 566.167 1535.08 566.167Z" fill="white" fill-opacity="0.25"/>
<path d="M531.227 799.667C530.905 799.667 530.644 799.929 530.644 800.251C530.644 800.573 530.905 800.834 531.227 800.834C531.549 800.834 531.811 800.573 531.811 800.251C531.811 799.929 531.549 799.667 531.227 799.667Z" fill="white" fill-opacity="0.05"/>
<path d="M450.507 84.5405C450.185 84.5405 449.924 84.8016 449.924 85.1238C449.924 85.4459 450.185 85.707 450.507 85.707C450.83 85.707 451.091 85.4459 451.091 85.1238C451.091 84.8016 450.83 84.5405 450.507 84.5405Z" fill="white" fill-opacity="0.15"/>
<path d="M184.881 209.529C184.558 209.529 184.297 209.79 184.297 210.112C184.297 210.434 184.558 210.695 184.881 210.695C185.203 210.695 185.464 210.434 185.464 210.112C185.464 209.79 185.203 209.529 184.881 209.529Z" fill="white" fill-opacity="0.25"/>
<path d="M1498.55 704.199C1498.23 704.199 1497.97 704.46 1497.97 704.782C1497.97 705.104 1498.23 705.365 1498.55 705.365C1498.88 705.365 1499.14 705.104 1499.14 704.782C1499.14 704.46 1498.88 704.199 1498.55 704.199Z" fill="white" fill-opacity="0.05"/>
<path d="M1056.45 229.658C1056.12 229.658 1055.86 229.919 1055.86 230.241C1055.86 230.563 1056.12 230.824 1056.45 230.824C1056.77 230.824 1057.03 230.563 1057.03 230.241C1057.03 229.919 1056.77 229.658 1056.45 229.658Z" fill="white" fill-opacity="0.15"/>
<path d="M375.397 687.742C375.075 687.742 374.814 688.003 374.814 688.325C374.814 688.647 375.075 688.908 375.397 688.908C375.719 688.908 375.98 688.647 375.98 688.325C375.98 688.003 375.719 687.742 375.397 687.742Z" fill="white" fill-opacity="0.15"/>
<path d="M1586.09 306.814C1585.77 306.814 1585.51 307.075 1585.51 307.397C1585.51 307.719 1585.77 307.98 1586.09 307.98C1586.41 307.98 1586.67 307.719 1586.67 307.397C1586.67 307.075 1586.41 306.814 1586.09 306.814Z" fill="white" fill-opacity="0.25"/>
<path d="M473.118 351.507C472.796 351.507 472.535 351.768 472.535 352.091C472.535 352.413 472.796 352.674 473.118 352.674C473.44 352.674 473.701 352.413 473.701 352.091C473.701 351.768 473.44 351.507 473.118 351.507Z" fill="white" fill-opacity="0.15"/>
<path d="M144.619 594.689C144.297 594.689 144.035 594.95 144.035 595.272C144.035 595.594 144.297 595.855 144.619 595.855C144.941 595.855 145.202 595.594 145.202 595.272C145.202 594.95 144.941 594.689 144.619 594.689Z" fill="white" fill-opacity="0.1"/>
<path d="M1650.86 460.972C1650.53 460.972 1650.27 461.233 1650.27 461.555C1650.27 461.878 1650.53 462.139 1650.86 462.139C1651.18 462.139 1651.44 461.878 1651.44 461.555C1651.44 461.233 1651.18 460.972 1650.86 460.972Z" fill="white" fill-opacity="0.05"/>
<path d="M378.536 248.224C378.214 248.224 377.952 248.485 377.952 248.807C377.952 249.129 378.214 249.391 378.536 249.391C378.858 249.391 379.119 249.129 379.119 248.807C379.119 248.485 378.858 248.224 378.536 248.224Z" fill="white" fill-opacity="0.05"/>
<path d="M420.793 523.119C420.47 523.119 420.209 523.38 420.209 523.702C420.209 524.024 420.47 524.285 420.793 524.285C421.115 524.285 421.376 524.024 421.376 523.702C421.376 523.38 421.115 523.119 420.793 523.119Z" fill="white" fill-opacity="0.1"/>
<path d="M790.947 455.712C790.625 455.712 790.364 455.974 790.364 456.296C790.364 456.618 790.625 456.879 790.947 456.879C791.269 456.879 791.53 456.618 791.53 456.296C791.53 455.974 791.269 455.712 790.947 455.712Z" fill="white" fill-opacity="0.1"/>
<path d="M1587.7 893.919C1587.38 893.919 1587.11 894.181 1587.11 894.503C1587.11 894.825 1587.38 895.086 1587.7 895.086C1588.02 895.086 1588.28 894.825 1588.28 894.503C1588.28 894.181 1588.02 893.919 1587.7 893.919Z" fill="white" fill-opacity="0.05"/>
<path d="M780.381 147.087C780.058 147.087 779.797 147.349 779.797 147.671C779.797 147.993 780.058 148.254 780.381 148.254C780.703 148.254 780.964 147.993 780.964 147.671C780.964 147.349 780.703 147.087 780.381 147.087Z" fill="white" fill-opacity="0.15"/>
<path d="M1237.18 590.544C1236.85 590.544 1236.59 590.806 1236.59 591.128C1236.59 591.45 1236.85 591.711 1237.18 591.711C1237.5 591.711 1237.76 591.45 1237.76 591.128C1237.76 590.806 1237.5 590.544 1237.18 590.544Z" fill="white" fill-opacity="0.05"/>
<path d="M1034.01 323.88C1033.69 323.88 1033.43 324.141 1033.43 324.464C1033.43 324.786 1033.69 325.047 1034.01 325.047C1034.33 325.047 1034.59 324.786 1034.59 324.464C1034.59 324.141 1034.33 323.88 1034.01 323.88Z" fill="white"/>
<path d="M274.889 664.591C274.567 664.591 274.306 664.852 274.306 665.175C274.306 665.497 274.567 665.758 274.889 665.758C275.211 665.758 275.473 665.497 275.473 665.175C275.473 664.852 275.211 664.591 274.889 664.591Z" fill="white" fill-opacity="0.25"/>
<path d="M874.31 652.439C873.988 652.439 873.727 652.7 873.727 653.022C873.727 653.344 873.988 653.605 874.31 653.605C874.632 653.605 874.894 653.344 874.894 653.022C874.894 652.7 874.632 652.439 874.31 652.439Z" fill="white" fill-opacity="0.15"/>
<path d="M304.698 647.374C304.376 647.374 304.115 647.636 304.115 647.958C304.115 648.28 304.376 648.541 304.698 648.541C305.02 648.541 305.281 648.28 305.281 647.958C305.281 647.636 305.02 647.374 304.698 647.374Z" fill="white" fill-opacity="0.25"/>
<path d="M648.279 871.365C647.957 871.365 647.696 871.626 647.696 871.948C647.696 872.27 647.957 872.531 648.279 872.531C648.601 872.531 648.862 872.27 648.862 871.948C648.862 871.626 648.601 871.365 648.279 871.365Z" fill="white" fill-opacity="0.25"/>
<path d="M981.392 216.263C981.07 216.263 980.809 216.524 980.809 216.846C980.809 217.169 981.07 217.43 981.392 217.43C981.714 217.43 981.976 217.169 981.976 216.846C981.976 216.524 981.714 216.263 981.392 216.263Z" fill="white" fill-opacity="0.25"/>
<path d="M1531.65 180.847C1531.33 180.847 1531.07 181.108 1531.07 181.43C1531.07 181.753 1531.33 182.014 1531.65 182.014C1531.97 182.014 1532.23 181.753 1532.23 181.43C1532.23 181.108 1531.97 180.847 1531.65 180.847Z" fill="white" fill-opacity="0.05"/>
<path d="M673.784 650.402C673.462 650.402 673.201 650.663 673.201 650.985C673.201 651.307 673.462 651.568 673.784 651.568C674.106 651.568 674.367 651.307 674.367 650.985C674.367 650.663 674.106 650.402 673.784 650.402Z" fill="white" fill-opacity="0.15"/>
<path d="M666.752 375.542C666.429 375.542 666.168 375.804 666.168 376.126C666.168 376.448 666.429 376.709 666.752 376.709C667.074 376.709 667.335 376.448 667.335 376.126C667.335 375.804 667.074 375.542 666.752 375.542Z" fill="white" fill-opacity="0.15"/>
<path d="M1212.79 141.134C1212.47 141.134 1212.21 141.395 1212.21 141.718C1212.21 142.04 1212.47 142.301 1212.79 142.301C1213.11 142.301 1213.37 142.04 1213.37 141.718C1213.37 141.395 1213.11 141.134 1212.79 141.134Z" fill="white" fill-opacity="0.1"/>
<path d="M412.859 620.05C412.537 620.05 412.276 620.311 412.276 620.634C412.276 620.956 412.537 621.217 412.859 621.217C413.181 621.217 413.442 620.956 413.442 620.634C413.442 620.311 413.181 620.05 412.859 620.05Z" fill="white" fill-opacity="0.05"/>
<path d="M418.378 290.464C418.055 290.464 417.794 290.725 417.794 291.048C417.794 291.37 418.055 291.631 418.378 291.631C418.7 291.631 418.961 291.37 418.961 291.048C418.961 290.725 418.7 290.464 418.378 290.464Z" fill="white" fill-opacity="0.25"/>
<path d="M1103.87 872.595C1103.54 872.595 1103.28 872.856 1103.28 873.178C1103.28 873.501 1103.54 873.762 1103.87 873.762C1104.19 873.762 1104.45 873.501 1104.45 873.178C1104.45 872.856 1104.19 872.595 1103.87 872.595Z" fill="white" fill-opacity="0.05"/>
<path d="M444.371 35.5288C444.049 35.5288 443.787 35.7899 443.787 36.112C443.787 36.4342 444.049 36.6953 444.371 36.6953C444.693 36.6953 444.954 36.4342 444.954 36.112C444.954 35.7899 444.693 35.5288 444.371 35.5288Z" fill="white"/>
<path d="M74.3268 309.884C74.0047 309.884 73.7435 310.145 73.7435 310.468C73.7435 310.79 74.0047 311.051 74.3268 311.051C74.649 311.051 74.9102 310.79 74.9102 310.468C74.9102 310.145 74.649 309.884 74.3268 309.884Z" fill="white" fill-opacity="0.25"/>
<path d="M693.877 506.624C693.554 506.624 693.293 506.886 693.293 507.208C693.293 507.53 693.554 507.791 693.877 507.791C694.199 507.791 694.46 507.53 694.46 507.208C694.46 506.886 694.199 506.624 693.877 506.624Z" fill="white" fill-opacity="0.05"/>
<path d="M1208.08 901.097C1207.75 901.097 1207.49 901.358 1207.49 901.68C1207.49 902.003 1207.75 902.264 1208.08 902.264C1208.4 902.264 1208.66 902.003 1208.66 901.68C1208.66 901.358 1208.4 901.097 1208.08 901.097Z" fill="white" fill-opacity="0.15"/>
<path d="M857.157 165.13C856.835 165.13 856.574 165.391 856.574 165.714C856.574 166.036 856.835 166.297 857.157 166.297C857.479 166.297 857.74 166.036 857.74 165.714C857.74 165.391 857.479 165.13 857.157 165.13Z" fill="white" fill-opacity="0.25"/>
<path d="M62.8835 487.941C62.5613 487.941 62.3001 488.202 62.3001 488.524C62.3001 488.846 62.5613 489.107 62.8835 489.107C63.2056 489.107 63.4668 488.846 63.4668 488.524C63.4668 488.202 63.2056 487.941 62.8835 487.941Z" fill="white" fill-opacity="0.1"/>
<path d="M445.969 485.328C445.647 485.328 445.386 485.589 445.386 485.911C445.386 486.233 445.647 486.494 445.969 486.494C446.292 486.494 446.553 486.233 446.553 485.911C446.553 485.589 446.292 485.328 445.969 485.328Z" fill="white" fill-opacity="0.05"/>
<path d="M1465.24 92.1108C1464.92 92.1108 1464.66 92.372 1464.66 92.6941C1464.66 93.0162 1464.92 93.2773 1465.24 93.2773C1465.56 93.2773 1465.82 93.0162 1465.82 92.6941C1465.82 92.372 1465.56 92.1108 1465.24 92.1108Z" fill="white" fill-opacity="0.05"/>
<path d="M116.141 139.88C115.819 139.88 115.558 140.141 115.558 140.464C115.558 140.786 115.819 141.047 116.141 141.047C116.463 141.047 116.725 140.786 116.725 140.464C116.725 140.141 116.463 139.88 116.141 139.88Z" fill="white" fill-opacity="0.05"/>
<path d="M701.205 104.326C700.883 104.326 700.621 104.587 700.621 104.909C700.621 105.231 700.883 105.492 701.205 105.492C701.527 105.492 701.788 105.231 701.788 104.909C701.788 104.587 701.527 104.326 701.205 104.326Z" fill="white" fill-opacity="0.25"/>
<path d="M1190.3 453.361C1189.98 453.361 1189.72 453.622 1189.72 453.944C1189.72 454.266 1189.98 454.527 1190.3 454.527C1190.62 454.527 1190.88 454.266 1190.88 453.944C1190.88 453.622 1190.62 453.361 1190.3 453.361Z" fill="white" fill-opacity="0.1"/>
<path d="M793.57 82.769C793.248 82.769 792.987 83.0302 792.987 83.3523C792.987 83.6744 793.248 83.9355 793.57 83.9355C793.892 83.9355 794.153 83.6744 794.153 83.3523C794.153 83.0302 793.892 82.769 793.57 82.769Z" fill="white" fill-opacity="0.15"/>
<path d="M767.107 598.062C766.785 598.062 766.524 598.323 766.524 598.645C766.524 598.967 766.785 599.229 767.107 599.229C767.429 599.229 767.69 598.967 767.69 598.645C767.69 598.323 767.429 598.062 767.107 598.062Z" fill="white" fill-opacity="0.25"/>
<path d="M1567.41 152.23C1567.08 152.23 1566.82 152.491 1566.82 152.813C1566.82 153.135 1567.08 153.396 1567.41 153.396C1567.73 153.396 1567.99 153.135 1567.99 152.813C1567.99 152.491 1567.73 152.23 1567.41 152.23Z" fill="white" fill-opacity="0.25"/>
<path d="M426.113 762.371C425.791 762.371 425.53 762.632 425.53 762.954C425.53 763.276 425.791 763.537 426.113 763.537C426.435 763.537 426.696 763.276 426.696 762.954C426.696 762.632 426.435 762.371 426.113 762.371Z" fill="white" fill-opacity="0.1"/>
<path d="M120.317 5.85691C119.995 5.85691 119.734 6.11804 119.734 6.44017C119.734 6.7623 119.995 7.02344 120.317 7.02344C120.639 7.02344 120.9 6.7623 120.9 6.44017C120.9 6.11804 120.639 5.85691 120.317 5.85691Z" fill="white" fill-opacity="0.1"/>
<path d="M1323.23 0.64597C1322.91 0.64597 1322.64 0.907106 1322.64 1.22923C1322.64 1.55136 1322.91 1.8125 1323.23 1.8125C1323.55 1.8125 1323.81 1.55136 1323.81 1.22923C1323.81 0.907106 1323.55 0.64597 1323.23 0.64597Z" fill="white" fill-opacity="0.25"/>
<path d="M1069.41 465.986C1069.09 465.986 1068.83 466.247 1068.83 466.569C1068.83 466.891 1069.09 467.152 1069.41 467.152C1069.73 467.152 1069.99 466.891 1069.99 466.569C1069.99 466.247 1069.73 465.986 1069.41 465.986Z" fill="white" fill-opacity="0.25"/>
<path d="M650.452 194.789C650.13 194.789 649.868 195.05 649.868 195.372C649.868 195.694 650.13 195.955 650.452 195.955C650.774 195.955 651.035 195.694 651.035 195.372C651.035 195.05 650.774 194.789 650.452 194.789Z" fill="white" fill-opacity="0.1"/>
<path d="M1466.43 890.523C1466.11 890.523 1465.85 890.784 1465.85 891.106C1465.85 891.428 1466.11 891.689 1466.43 891.689C1466.75 891.689 1467.01 891.428 1467.01 891.106C1467.01 890.784 1466.75 890.523 1466.43 890.523Z" fill="white" fill-opacity="0.05"/>
<path d="M764.823 547.037C764.501 547.037 764.24 547.298 764.24 547.62C764.24 547.942 764.501 548.203 764.823 548.203C765.145 548.203 765.406 547.942 765.406 547.62C765.406 547.298 765.145 547.037 764.823 547.037Z" fill="white" fill-opacity="0.25"/>
<path d="M1354.83 837.146C1354.51 837.146 1354.25 837.407 1354.25 837.729C1354.25 838.051 1354.51 838.312 1354.83 838.312C1355.15 838.312 1355.41 838.051 1355.41 837.729C1355.41 837.407 1355.15 837.146 1354.83 837.146Z" fill="white" fill-opacity="0.1"/>
<path d="M375.141 466.632C374.819 466.632 374.558 466.893 374.558 467.216C374.558 467.538 374.819 467.799 375.141 467.799C375.463 467.799 375.725 467.538 375.725 467.216C375.725 466.893 375.463 466.632 375.141 466.632Z" fill="white"/>
<path d="M61.2487 534.509C60.9265 534.509 60.6654 534.77 60.6654 535.093C60.6654 535.415 60.9265 535.676 61.2487 535.676C61.5709 535.676 61.832 535.415 61.832 535.093C61.832 534.77 61.5709 534.509 61.2487 534.509Z" fill="white" fill-opacity="0.1"/>
<path d="M110.016 332.376C109.694 332.376 109.433 332.638 109.433 332.96C109.433 333.282 109.694 333.543 110.016 333.543C110.338 333.543 110.6 333.282 110.6 332.96C110.6 332.638 110.338 332.376 110.016 332.376Z" fill="white"/>
<path d="M1552.05 798.373C1551.73 798.373 1551.46 798.634 1551.46 798.956C1551.46 799.278 1551.73 799.539 1552.05 799.539C1552.37 799.539 1552.63 799.278 1552.63 798.956C1552.63 798.634 1552.37 798.373 1552.05 798.373Z" fill="white" fill-opacity="0.05"/>
<path d="M1403.32 371.632C1403 371.632 1402.73 371.893 1402.73 372.216C1402.73 372.538 1403 372.799 1403.32 372.799C1403.64 372.799 1403.9 372.538 1403.9 372.216C1403.9 371.893 1403.64 371.632 1403.32 371.632Z" fill="white" fill-opacity="0.05"/>
<path d="M813.405 376.751C813.083 376.751 812.822 377.013 812.822 377.335C812.822 377.657 813.083 377.918 813.405 377.918C813.727 377.918 813.988 377.657 813.988 377.335C813.988 377.013 813.727 376.751 813.405 376.751Z" fill="white" fill-opacity="0.25"/>
<path d="M1419.34 900.8C1419.02 900.8 1418.76 901.061 1418.76 901.384C1418.76 901.706 1419.02 901.967 1419.34 901.967C1419.66 901.967 1419.93 901.706 1419.93 901.384C1419.93 901.061 1419.66 900.8 1419.34 900.8Z" fill="white" fill-opacity="0.1"/>
<path d="M1610.65 568.347C1610.33 568.347 1610.07 568.608 1610.07 568.93C1610.07 569.253 1610.33 569.514 1610.65 569.514C1610.97 569.514 1611.24 569.253 1611.24 568.93C1611.24 568.608 1610.97 568.347 1610.65 568.347Z" fill="white" fill-opacity="0.15"/>
<path d="M278.89 787.716C278.568 787.716 278.307 787.977 278.307 788.3C278.307 788.622 278.568 788.883 278.89 788.883C279.212 788.883 279.474 788.622 279.474 788.3C279.474 787.977 279.212 787.716 278.89 787.716Z" fill="white" fill-opacity="0.15"/>
<path d="M463.621 375.261C463.299 375.261 463.037 375.522 463.037 375.844C463.037 376.167 463.299 376.428 463.621 376.428C463.943 376.428 464.204 376.167 464.204 375.844C464.204 375.522 463.943 375.261 463.621 375.261Z" fill="white" fill-opacity="0.1"/>
<path d="M1481.43 216.55C1481.11 216.55 1480.85 216.811 1480.85 217.134C1480.85 217.456 1481.11 217.717 1481.43 217.717C1481.76 217.717 1482.02 217.456 1482.02 217.134C1482.02 216.811 1481.76 216.55 1481.43 216.55Z" fill="white" fill-opacity="0.1"/>
<path d="M231.116 220.642C230.794 220.642 230.533 220.903 230.533 221.225C230.533 221.547 230.794 221.809 231.116 221.809C231.438 221.809 231.699 221.547 231.699 221.225C231.699 220.903 231.438 220.642 231.116 220.642Z" fill="white" fill-opacity="0.25"/>
<path d="M1172.05 102.294C1171.72 102.294 1171.46 102.556 1171.46 102.878C1171.46 103.2 1171.72 103.461 1172.05 103.461C1172.37 103.461 1172.63 103.2 1172.63 102.878C1172.63 102.556 1172.37 102.294 1172.05 102.294Z" fill="white"/>
<path d="M780.951 703.91C780.629 703.91 780.368 704.171 780.368 704.493C780.368 704.815 780.629 705.076 780.951 705.076C781.273 705.076 781.534 704.815 781.534 704.493C781.534 704.171 781.273 703.91 780.951 703.91Z" fill="white" fill-opacity="0.15"/>
<path d="M812.481 662.253C812.159 662.253 811.898 662.515 811.898 662.837C811.898 663.159 812.159 663.42 812.481 663.42C812.803 663.42 813.064 663.159 813.064 662.837C813.064 662.515 812.803 662.253 812.481 662.253Z" fill="white" fill-opacity="0.25"/>
<path d="M395.29 63.2729C394.968 63.2729 394.706 63.5341 394.706 63.8562C394.706 64.1783 394.968 64.4395 395.29 64.4395C395.612 64.4395 395.873 64.1783 395.873 63.8562C395.873 63.5341 395.612 63.2729 395.29 63.2729Z" fill="white"/>
<path d="M1290.02 335.005C1289.7 335.005 1289.44 335.266 1289.44 335.589C1289.44 335.911 1289.7 336.172 1290.02 336.172C1290.35 336.172 1290.61 335.911 1290.61 335.589C1290.61 335.266 1290.35 335.005 1290.02 335.005Z" fill="white"/>
<path d="M791.51 520.515C791.188 520.515 790.927 520.776 790.927 521.098C790.927 521.421 791.188 521.682 791.51 521.682C791.833 521.682 792.094 521.421 792.094 521.098C792.094 520.776 791.833 520.515 791.51 520.515Z" fill="white" fill-opacity="0.25"/>
<path d="M95.0007 745.515C94.6785 745.515 94.4173 745.776 94.4173 746.098C94.4173 746.421 94.6785 746.682 95.0007 746.682C95.3228 746.682 95.584 746.421 95.584 746.098C95.584 745.776 95.3228 745.515 95.0007 745.515Z" fill="white" fill-opacity="0.15"/>
<path d="M745.761 731.486C745.439 731.486 745.178 731.747 745.178 732.069C745.178 732.391 745.439 732.652 745.761 732.652C746.084 732.652 746.345 732.391 746.345 732.069C746.345 731.747 746.084 731.486 745.761 731.486Z" fill="white" fill-opacity="0.05"/>
<path d="M604.922 403.496C604.599 403.496 604.338 403.757 604.338 404.079C604.338 404.401 604.599 404.662 604.922 404.662C605.244 404.662 605.505 404.401 605.505 404.079C605.505 403.757 605.244 403.496 604.922 403.496Z" fill="white" fill-opacity="0.1"/>
<path d="M569.292 645.64C568.97 645.64 568.708 645.901 568.708 646.223C568.708 646.546 568.97 646.807 569.292 646.807C569.614 646.807 569.875 646.546 569.875 646.223C569.875 645.901 569.614 645.64 569.292 645.64Z" fill="white" fill-opacity="0.15"/>
<path d="M1457.88 310.74C1457.56 310.74 1457.3 311.001 1457.3 311.323C1457.3 311.645 1457.56 311.906 1457.88 311.906C1458.2 311.906 1458.46 311.645 1458.46 311.323C1458.46 311.001 1458.2 310.74 1457.88 310.74Z" fill="white" fill-opacity="0.25"/>
<path d="M1379.46 220.216C1379.13 220.216 1378.87 220.477 1378.87 220.8C1378.87 221.122 1379.13 221.383 1379.46 221.383C1379.78 221.383 1380.04 221.122 1380.04 220.8C1380.04 220.477 1379.78 220.216 1379.46 220.216Z" fill="white" fill-opacity="0.15"/>
<path d="M979.57 747.07C979.248 747.07 978.987 747.331 978.987 747.653C978.987 747.975 979.248 748.236 979.57 748.236C979.892 748.236 980.153 747.975 980.153 747.653C980.153 747.331 979.892 747.07 979.57 747.07Z" fill="white" fill-opacity="0.25"/>
<path d="M528.205 343.414C527.883 343.414 527.621 343.675 527.621 343.997C527.621 344.319 527.883 344.58 528.205 344.58C528.527 344.58 528.788 344.319 528.788 343.997C528.788 343.675 528.527 343.414 528.205 343.414Z" fill="white"/>
<path d="M910.079 8.64402C909.757 8.64402 909.495 8.90515 909.495 9.22728C909.495 9.54941 909.757 9.81055 910.079 9.81055C910.401 9.81055 910.662 9.54941 910.662 9.22728C910.662 8.90515 910.401 8.64402 910.079 8.64402Z" fill="white" fill-opacity="0.05"/>
<path d="M1066.07 293.81C1065.74 293.81 1065.48 294.071 1065.48 294.393C1065.48 294.715 1065.74 294.977 1066.07 294.977C1066.39 294.977 1066.65 294.715 1066.65 294.393C1066.65 294.071 1066.39 293.81 1066.07 293.81Z" fill="white" fill-opacity="0.25"/>
<path d="M1652.06 717.171C1651.73 717.171 1651.47 717.432 1651.47 717.755C1651.47 718.077 1651.73 718.338 1652.06 718.338C1652.38 718.338 1652.64 718.077 1652.64 717.755C1652.64 717.432 1652.38 717.171 1652.06 717.171Z" fill="white" fill-opacity="0.1"/>
<path d="M894.225 3.71238C893.903 3.71238 893.642 3.97351 893.642 4.29564C893.642 4.61777 893.903 4.87891 894.225 4.87891C894.547 4.87891 894.809 4.61777 894.809 4.29564C894.809 3.97351 894.547 3.71238 894.225 3.71238Z" fill="white" fill-opacity="0.25"/>
<path d="M1011.27 343.935C1010.95 343.935 1010.69 344.196 1010.69 344.518C1010.69 344.84 1010.95 345.102 1011.27 345.102C1011.6 345.102 1011.86 344.84 1011.86 344.518C1011.86 344.196 1011.6 343.935 1011.27 343.935Z" fill="white" fill-opacity="0.1"/>
<path d="M1137.58 403.31C1137.26 403.31 1137 403.571 1137 403.893C1137 404.215 1137.26 404.477 1137.58 404.477C1137.91 404.477 1138.17 404.215 1138.17 403.893C1138.17 403.571 1137.91 403.31 1137.58 403.31Z" fill="white"/>
<path d="M468.206 510.505C467.884 510.505 467.622 510.766 467.622 511.089C467.622 511.411 467.884 511.672 468.206 511.672C468.528 511.672 468.789 511.411 468.789 511.089C468.789 510.766 468.528 510.505 468.206 510.505Z" fill="white" fill-opacity="0.1"/>
<path d="M1361.46 184.941C1361.14 184.941 1360.88 185.202 1360.88 185.524C1360.88 185.846 1361.14 186.107 1361.46 186.107C1361.78 186.107 1362.04 185.846 1362.04 185.524C1362.04 185.202 1361.78 184.941 1361.46 184.941Z" fill="white" fill-opacity="0.1"/>
<path d="M529.863 918.267C529.541 918.267 529.28 918.528 529.28 918.85C529.28 919.172 529.541 919.434 529.863 919.434C530.185 919.434 530.446 919.172 530.446 918.85C530.446 918.528 530.185 918.267 529.863 918.267Z" fill="white" fill-opacity="0.15"/>
<path d="M1176.83 197.597C1176.5 197.597 1176.24 197.858 1176.24 198.18C1176.24 198.503 1176.5 198.764 1176.83 198.764C1177.15 198.764 1177.41 198.503 1177.41 198.18C1177.41 197.858 1177.15 197.597 1176.83 197.597Z" fill="white" fill-opacity="0.05"/>
<path d="M511.011 671.312C510.689 671.312 510.428 671.573 510.428 671.895C510.428 672.217 510.689 672.479 511.011 672.479C511.334 672.479 511.595 672.217 511.595 671.895C511.595 671.573 511.334 671.312 511.011 671.312Z" fill="white" fill-opacity="0.25"/>
<path d="M1604.18 421.802C1603.86 421.802 1603.59 422.063 1603.59 422.385C1603.59 422.708 1603.86 422.969 1604.18 422.969C1604.5 422.969 1604.76 422.708 1604.76 422.385C1604.76 422.063 1604.5 421.802 1604.18 421.802Z" fill="white" fill-opacity="0.25"/>
<path d="M508.725 879.263C508.403 879.263 508.142 879.524 508.142 879.846C508.142 880.169 508.403 880.43 508.725 880.43C509.047 880.43 509.309 880.169 509.309 879.846C509.309 879.524 509.047 879.263 508.725 879.263Z" fill="white" fill-opacity="0.15"/>
<path d="M255.033 395.429C254.711 395.429 254.45 395.69 254.45 396.012C254.45 396.335 254.711 396.596 255.033 396.596C255.355 396.596 255.616 396.335 255.616 396.012C255.616 395.69 255.355 395.429 255.033 395.429Z" fill="white" fill-opacity="0.15"/>
<path d="M139.241 648.124C138.919 648.124 138.658 648.386 138.658 648.708C138.658 649.03 138.919 649.291 139.241 649.291C139.563 649.291 139.824 649.03 139.824 648.708C139.824 648.386 139.563 648.124 139.241 648.124Z" fill="white" fill-opacity="0.1"/>
<path d="M221.818 182.378C221.496 182.378 221.235 182.64 221.235 182.962C221.235 183.284 221.496 183.545 221.818 183.545C222.14 183.545 222.401 183.284 222.401 182.962C222.401 182.64 222.14 182.378 221.818 182.378Z" fill="white"/>
<path d="M1559.72 25.1128C1559.4 25.1128 1559.14 25.3739 1559.14 25.696C1559.14 26.0182 1559.4 26.2793 1559.72 26.2793C1560.04 26.2793 1560.3 26.0182 1560.3 25.696C1560.3 25.3739 1560.04 25.1128 1559.72 25.1128Z" fill="white" fill-opacity="0.1"/>
<path d="M1530.87 163.853C1530.55 163.853 1530.29 164.114 1530.29 164.436C1530.29 164.758 1530.55 165.02 1530.87 165.02C1531.19 165.02 1531.45 164.758 1531.45 164.436C1531.45 164.114 1531.19 163.853 1530.87 163.853Z" fill="white" fill-opacity="0.1"/>
<path d="M1067.18 484.785C1066.85 484.785 1066.59 485.046 1066.59 485.368C1066.59 485.69 1066.85 485.951 1067.18 485.951C1067.5 485.951 1067.76 485.69 1067.76 485.368C1067.76 485.046 1067.5 484.785 1067.18 484.785Z" fill="white" fill-opacity="0.1"/>
<path d="M534.358 656.015C534.036 656.015 533.775 656.276 533.775 656.598C533.775 656.921 534.036 657.182 534.358 657.182C534.68 657.182 534.941 656.921 534.941 656.598C534.941 656.276 534.68 656.015 534.358 656.015Z" fill="white" fill-opacity="0.05"/>
<path d="M1610.14 806.289C1609.82 806.289 1609.55 806.55 1609.55 806.872C1609.55 807.194 1609.82 807.455 1610.14 807.455C1610.46 807.455 1610.72 807.194 1610.72 806.872C1610.72 806.55 1610.46 806.289 1610.14 806.289Z" fill="white" fill-opacity="0.15"/>
<path d="M1462.15 27.8296C1461.83 27.8296 1461.57 28.0907 1461.57 28.4128C1461.57 28.735 1461.83 28.9961 1462.15 28.9961C1462.47 28.9961 1462.73 28.735 1462.73 28.4128C1462.73 28.0907 1462.47 27.8296 1462.15 27.8296Z" fill="white" fill-opacity="0.05"/>
<path d="M539.498 474.255C539.176 474.255 538.914 474.516 538.914 474.839C538.914 475.161 539.176 475.422 539.498 475.422C539.82 475.422 540.081 475.161 540.081 474.839C540.081 474.516 539.82 474.255 539.498 474.255Z" fill="white" fill-opacity="0.25"/>
<path d="M945.446 241.906C945.124 241.906 944.863 242.167 944.863 242.489C944.863 242.811 945.124 243.072 945.446 243.072C945.768 243.072 946.029 242.811 946.029 242.489C946.029 242.167 945.768 241.906 945.446 241.906Z" fill="white" fill-opacity="0.1"/>
<path d="M1039.89 8.51316C1039.57 8.51316 1039.31 8.77429 1039.31 9.09642C1039.31 9.41855 1039.57 9.67969 1039.89 9.67969C1040.22 9.67969 1040.48 9.41855 1040.48 9.09642C1040.48 8.77429 1040.22 8.51316 1039.89 8.51316Z" fill="white" fill-opacity="0.25"/>
<path d="M1271.18 713.124C1270.86 713.124 1270.6 713.386 1270.6 713.708C1270.6 714.03 1270.86 714.291 1271.18 714.291C1271.51 714.291 1271.77 714.03 1271.77 713.708C1271.77 713.386 1271.51 713.124 1271.18 713.124Z" fill="white" fill-opacity="0.1"/>
<path d="M867.542 315.087C867.22 315.087 866.958 315.349 866.958 315.671C866.958 315.993 867.22 316.254 867.542 316.254C867.864 316.254 868.125 315.993 868.125 315.671C868.125 315.349 867.864 315.087 867.542 315.087Z" fill="white" fill-opacity="0.05"/>
<path d="M879.176 93.2495C878.854 93.2495 878.593 93.5106 878.593 93.8328C878.593 94.1549 878.854 94.416 879.176 94.416C879.499 94.416 879.76 94.1549 879.76 93.8328C879.76 93.5106 879.499 93.2495 879.176 93.2495Z" fill="white" fill-opacity="0.15"/>
<path d="M1491.05 150.884C1490.73 150.884 1490.47 151.145 1490.47 151.468C1490.47 151.79 1490.73 152.051 1491.05 152.051C1491.37 152.051 1491.63 151.79 1491.63 151.468C1491.63 151.145 1491.37 150.884 1491.05 150.884Z" fill="white" fill-opacity="0.25"/>
<path d="M386.831 55.0464C386.509 55.0464 386.247 55.3075 386.247 55.6296C386.247 55.9518 386.509 56.2129 386.831 56.2129C387.153 56.2129 387.414 55.9518 387.414 55.6296C387.414 55.3075 387.153 55.0464 386.831 55.0464Z" fill="white" fill-opacity="0.25"/>
<path d="M746.284 391.117C745.962 391.117 745.701 391.378 745.701 391.7C745.701 392.022 745.962 392.283 746.284 392.283C746.606 392.283 746.867 392.022 746.867 391.7C746.867 391.378 746.606 391.117 746.284 391.117Z" fill="white" fill-opacity="0.25"/>
<path d="M320.086 376.585C319.763 376.585 319.502 376.847 319.502 377.169C319.502 377.491 319.763 377.752 320.086 377.752C320.408 377.752 320.669 377.491 320.669 377.169C320.669 376.847 320.408 376.585 320.086 376.585Z" fill="white" fill-opacity="0.25"/>
<path d="M338.998 145.871C338.676 145.871 338.414 146.132 338.414 146.454C338.414 146.776 338.676 147.037 338.998 147.037C339.32 147.037 339.581 146.776 339.581 146.454C339.581 146.132 339.32 145.871 338.998 145.871Z" fill="white" fill-opacity="0.1"/>
<path d="M1381.36 224.435C1381.03 224.435 1380.77 224.696 1380.77 225.018C1380.77 225.34 1381.03 225.602 1381.36 225.602C1381.68 225.602 1381.94 225.34 1381.94 225.018C1381.94 224.696 1381.68 224.435 1381.36 224.435Z" fill="white" fill-opacity="0.05"/>
<path d="M978.371 337.587C978.049 337.587 977.787 337.849 977.787 338.171C977.787 338.493 978.049 338.754 978.371 338.754C978.693 338.754 978.954 338.493 978.954 338.171C978.954 337.849 978.693 337.587 978.371 337.587Z" fill="white" fill-opacity="0.05"/>
<path d="M1672.35 519.761C1672.03 519.761 1671.77 520.022 1671.77 520.344C1671.77 520.667 1672.03 520.928 1672.35 520.928C1672.67 520.928 1672.93 520.667 1672.93 520.344C1672.93 520.022 1672.67 519.761 1672.35 519.761Z" fill="white" fill-opacity="0.15"/>
<path d="M1010.15 512.572C1009.83 512.572 1009.57 512.833 1009.57 513.155C1009.57 513.477 1009.83 513.738 1010.15 513.738C1010.48 513.738 1010.74 513.477 1010.74 513.155C1010.74 512.833 1010.48 512.572 1010.15 512.572Z" fill="white" fill-opacity="0.1"/>
<path d="M1288.46 890.519C1288.14 890.519 1287.88 890.78 1287.88 891.102C1287.88 891.424 1288.14 891.686 1288.46 891.686C1288.78 891.686 1289.04 891.424 1289.04 891.102C1289.04 890.78 1288.78 890.519 1288.46 890.519Z" fill="white" fill-opacity="0.05"/>
<path d="M1337.19 632.16C1336.87 632.16 1336.61 632.421 1336.61 632.743C1336.61 633.065 1336.87 633.326 1337.19 633.326C1337.52 633.326 1337.78 633.065 1337.78 632.743C1337.78 632.421 1337.52 632.16 1337.19 632.16Z" fill="white" fill-opacity="0.25"/>
<path d="M1506.47 509.943C1506.15 509.943 1505.89 510.204 1505.89 510.526C1505.89 510.848 1506.15 511.109 1506.47 511.109C1506.8 511.109 1507.06 510.848 1507.06 510.526C1507.06 510.204 1506.8 509.943 1506.47 509.943Z" fill="white" fill-opacity="0.25"/>
<path d="M1153.55 397.294C1153.22 397.294 1152.96 397.556 1152.96 397.878C1152.96 398.2 1153.22 398.461 1153.55 398.461C1153.87 398.461 1154.13 398.2 1154.13 397.878C1154.13 397.556 1153.87 397.294 1153.55 397.294Z" fill="white" fill-opacity="0.05"/>
<path d="M446.191 56.0698C445.869 56.0698 445.608 56.3309 445.608 56.6531C445.608 56.9752 445.869 57.2363 446.191 57.2363C446.513 57.2363 446.774 56.9752 446.774 56.6531C446.774 56.3309 446.513 56.0698 446.191 56.0698Z" fill="white" fill-opacity="0.05"/>
<path d="M1145.84 811.335C1145.52 811.335 1145.26 811.597 1145.26 811.919C1145.26 812.241 1145.52 812.502 1145.84 812.502C1146.17 812.502 1146.43 812.241 1146.43 811.919C1146.43 811.597 1146.17 811.335 1145.84 811.335Z" fill="white" fill-opacity="0.05"/>
<path d="M1049.36 494.929C1049.04 494.929 1048.78 495.19 1048.78 495.512C1048.78 495.835 1049.04 496.096 1049.36 496.096C1049.69 496.096 1049.95 495.835 1049.95 495.512C1049.95 495.19 1049.69 494.929 1049.36 494.929Z" fill="white" fill-opacity="0.15"/>
<path d="M241.219 664.103C240.897 664.103 240.636 664.364 240.636 664.686C240.636 665.008 240.897 665.27 241.219 665.27C241.542 665.27 241.803 665.008 241.803 664.686C241.803 664.364 241.542 664.103 241.219 664.103Z" fill="white" fill-opacity="0.05"/>
<path d="M526.17 802.708C525.847 802.708 525.586 802.97 525.586 803.292C525.586 803.614 525.847 803.875 526.17 803.875C526.492 803.875 526.753 803.614 526.753 803.292C526.753 802.97 526.492 802.708 526.17 802.708Z" fill="white" fill-opacity="0.15"/>
<path d="M413.047 484.642C412.724 484.642 412.463 484.903 412.463 485.225C412.463 485.547 412.724 485.809 413.047 485.809C413.369 485.809 413.63 485.547 413.63 485.225C413.63 484.903 413.369 484.642 413.047 484.642Z" fill="white" fill-opacity="0.1"/>
<path d="M823.667 324.929C823.345 324.929 823.083 325.19 823.083 325.512C823.083 325.835 823.345 326.096 823.667 326.096C823.989 326.096 824.25 325.835 824.25 325.512C824.25 325.19 823.989 324.929 823.667 324.929Z" fill="white" fill-opacity="0.05"/>
<path d="M951.732 647.378C951.41 647.378 951.149 647.64 951.149 647.962C951.149 648.284 951.41 648.545 951.732 648.545C952.054 648.545 952.315 648.284 952.315 647.962C952.315 647.64 952.054 647.378 951.732 647.378Z" fill="white" fill-opacity="0.05"/>
<path d="M1411.02 105.732C1410.69 105.732 1410.43 105.993 1410.43 106.315C1410.43 106.637 1410.69 106.898 1411.02 106.898C1411.34 106.898 1411.6 106.637 1411.6 106.315C1411.6 105.993 1411.34 105.732 1411.02 105.732Z" fill="white" fill-opacity="0.15"/>
<path d="M847.668 429.292C847.345 429.292 847.084 429.554 847.084 429.876C847.084 430.198 847.345 430.459 847.668 430.459C847.99 430.459 848.251 430.198 848.251 429.876C848.251 429.554 847.99 429.292 847.668 429.292Z" fill="white" fill-opacity="0.15"/>
<path d="M827.488 802.107C827.166 802.107 826.905 802.368 826.905 802.69C826.905 803.012 827.166 803.273 827.488 803.273C827.81 803.273 828.071 803.012 828.071 802.69C828.071 802.368 827.81 802.107 827.488 802.107Z" fill="white" fill-opacity="0.05"/>
<path d="M262.674 631.716C262.352 631.716 262.091 631.977 262.091 632.3C262.091 632.622 262.352 632.883 262.674 632.883C262.997 632.883 263.258 632.622 263.258 632.3C263.258 631.977 262.997 631.716 262.674 631.716Z" fill="white" fill-opacity="0.05"/>
<path d="M1015.15 399.115C1014.82 399.115 1014.56 399.376 1014.56 399.698C1014.56 400.02 1014.82 400.281 1015.15 400.281C1015.47 400.281 1015.73 400.02 1015.73 399.698C1015.73 399.376 1015.47 399.115 1015.15 399.115Z" fill="white"/>
<path d="M598.252 771.566C597.929 771.566 597.668 771.827 597.668 772.149C597.668 772.471 597.929 772.732 598.252 772.732C598.574 772.732 598.835 772.471 598.835 772.149C598.835 771.827 598.574 771.566 598.252 771.566Z" fill="white" fill-opacity="0.05"/>
<path d="M614.163 429.947C613.841 429.947 613.579 430.208 613.579 430.53C613.579 430.852 613.841 431.113 614.163 431.113C614.485 431.113 614.746 430.852 614.746 430.53C614.746 430.208 614.485 429.947 614.163 429.947Z" fill="white" fill-opacity="0.25"/>
<path d="M611.662 257.119C611.34 257.119 611.078 257.38 611.078 257.702C611.078 258.024 611.34 258.285 611.662 258.285C611.984 258.285 612.245 258.024 612.245 257.702C612.245 257.38 611.984 257.119 611.662 257.119Z" fill="white" fill-opacity="0.1"/>
<path d="M1258.4 848.128C1258.07 848.128 1257.81 848.39 1257.81 848.712C1257.81 849.034 1258.07 849.295 1258.4 849.295C1258.72 849.295 1258.98 849.034 1258.98 848.712C1258.98 848.39 1258.72 848.128 1258.4 848.128Z" fill="white" fill-opacity="0.05"/>
<path d="M852.567 556.587C852.245 556.587 851.984 556.849 851.984 557.171C851.984 557.493 852.245 557.754 852.567 557.754C852.889 557.754 853.15 557.493 853.15 557.171C853.15 556.849 852.889 556.587 852.567 556.587Z" fill="white" fill-opacity="0.05"/>
<path d="M496.987 417.07C496.665 417.07 496.404 417.331 496.404 417.653C496.404 417.975 496.665 418.236 496.987 418.236C497.309 418.236 497.57 417.975 497.57 417.653C497.57 417.331 497.309 417.07 496.987 417.07Z" fill="white" fill-opacity="0.1"/>
<path d="M510.673 827.566C510.35 827.566 510.089 827.827 510.089 828.149C510.089 828.471 510.35 828.732 510.673 828.732C510.995 828.732 511.256 828.471 511.256 828.149C511.256 827.827 510.995 827.566 510.673 827.566Z" fill="white" fill-opacity="0.25"/>
<path d="M767.265 332.527C766.943 332.527 766.682 332.788 766.682 333.11C766.682 333.432 766.943 333.693 767.265 333.693C767.587 333.693 767.849 333.432 767.849 333.11C767.849 332.788 767.587 332.527 767.265 332.527Z" fill="white" fill-opacity="0.15"/>
<path d="M685.35 793.062C685.028 793.062 684.767 793.323 684.767 793.645C684.767 793.967 685.028 794.229 685.35 794.229C685.672 794.229 685.934 793.967 685.934 793.645C685.934 793.323 685.672 793.062 685.35 793.062Z" fill="white" fill-opacity="0.25"/>
<path d="M1617.83 581.189C1617.5 581.189 1617.24 581.45 1617.24 581.772C1617.24 582.094 1617.5 582.355 1617.83 582.355C1618.15 582.355 1618.41 582.094 1618.41 581.772C1618.41 581.45 1618.15 581.189 1617.83 581.189Z" fill="white" fill-opacity="0.05"/>
<path d="M1123.68 710.357C1123.36 710.357 1123.1 710.618 1123.1 710.94C1123.1 711.262 1123.36 711.523 1123.68 711.523C1124 711.523 1124.26 711.262 1124.26 710.94C1124.26 710.618 1124 710.357 1123.68 710.357Z" fill="white" fill-opacity="0.1"/>
<path d="M344.505 820.296C344.182 820.296 343.921 820.557 343.921 820.88C343.921 821.202 344.182 821.463 344.505 821.463C344.827 821.463 345.088 821.202 345.088 820.88C345.088 820.557 344.827 820.296 344.505 820.296Z" fill="white" fill-opacity="0.25"/>
<path d="M1055.12 461.986C1054.79 461.986 1054.53 462.247 1054.53 462.569C1054.53 462.891 1054.79 463.152 1055.12 463.152C1055.44 463.152 1055.7 462.891 1055.7 462.569C1055.7 462.247 1055.44 461.986 1055.12 461.986Z" fill="white" fill-opacity="0.1"/>
<path d="M1589.01 329.785C1588.69 329.785 1588.43 330.046 1588.43 330.368C1588.43 330.69 1588.69 330.951 1589.01 330.951C1589.33 330.951 1589.59 330.69 1589.59 330.368C1589.59 330.046 1589.33 329.785 1589.01 329.785Z" fill="white" fill-opacity="0.25"/>
<path d="M648.299 251.89C647.977 251.89 647.716 252.151 647.716 252.473C647.716 252.796 647.977 253.057 648.299 253.057C648.622 253.057 648.883 252.796 648.883 252.473C648.883 252.151 648.622 251.89 648.299 251.89Z" fill="white" fill-opacity="0.25"/>
<path d="M473.864 920.097C473.542 920.097 473.281 920.358 473.281 920.68C473.281 921.003 473.542 921.264 473.864 921.264C474.186 921.264 474.447 921.003 474.447 920.68C474.447 920.358 474.186 920.097 473.864 920.097Z" fill="white"/>
<path d="M688.199 515.914C687.877 515.914 687.616 516.175 687.616 516.497C687.616 516.819 687.877 517.08 688.199 517.08C688.521 517.08 688.782 516.819 688.782 516.497C688.782 516.175 688.521 515.914 688.199 515.914Z" fill="white" fill-opacity="0.05"/>
<path d="M1081.01 717.814C1080.69 717.814 1080.43 718.075 1080.43 718.397C1080.43 718.719 1080.69 718.98 1081.01 718.98C1081.33 718.98 1081.59 718.719 1081.59 718.397C1081.59 718.075 1081.33 717.814 1081.01 717.814Z" fill="white" fill-opacity="0.1"/>
<path d="M278.215 249.679C277.892 249.679 277.631 249.94 277.631 250.262C277.631 250.585 277.892 250.846 278.215 250.846C278.537 250.846 278.798 250.585 278.798 250.262C278.798 249.94 278.537 249.679 278.215 249.679Z" fill="white" fill-opacity="0.1"/>
<path d="M843.091 424.203C842.769 424.203 842.508 424.464 842.508 424.786C842.508 425.108 842.769 425.369 843.091 425.369C843.414 425.369 843.675 425.108 843.675 424.786C843.675 424.464 843.414 424.203 843.091 424.203Z" fill="white" fill-opacity="0.25"/>
<path d="M1360.79 511.072C1360.46 511.072 1360.2 511.333 1360.2 511.655C1360.2 511.977 1360.46 512.238 1360.79 512.238C1361.11 512.238 1361.37 511.977 1361.37 511.655C1361.37 511.333 1361.11 511.072 1360.79 511.072Z" fill="white" fill-opacity="0.15"/>
<path d="M1064.98 635.14C1064.66 635.14 1064.4 635.401 1064.4 635.723C1064.4 636.046 1064.66 636.307 1064.98 636.307C1065.3 636.307 1065.56 636.046 1065.56 635.723C1065.56 635.401 1065.3 635.14 1064.98 635.14Z" fill="white" fill-opacity="0.25"/>
<path d="M1485.78 833.703C1485.45 833.703 1485.19 833.964 1485.19 834.286C1485.19 834.608 1485.45 834.869 1485.78 834.869C1486.1 834.869 1486.36 834.608 1486.36 834.286C1486.36 833.964 1486.1 833.703 1485.78 833.703Z" fill="white" fill-opacity="0.05"/>
<path d="M140.512 379.437C140.19 379.437 139.929 379.698 139.929 380.02C139.929 380.342 140.19 380.604 140.512 380.604C140.835 380.604 141.096 380.342 141.096 380.02C141.096 379.698 140.835 379.437 140.512 379.437Z" fill="white" fill-opacity="0.05"/>
<path d="M231.746 114.144C231.424 114.144 231.162 114.405 231.162 114.727C231.162 115.049 231.424 115.311 231.746 115.311C232.068 115.311 232.329 115.049 232.329 114.727C232.329 114.405 232.068 114.144 231.746 114.144Z" fill="white" fill-opacity="0.25"/>
<path d="M1352.06 415.587C1351.74 415.587 1351.48 415.849 1351.48 416.171C1351.48 416.493 1351.74 416.754 1352.06 416.754C1352.38 416.754 1352.64 416.493 1352.64 416.171C1352.64 415.849 1352.38 415.587 1352.06 415.587Z" fill="white" fill-opacity="0.25"/>
<path d="M678.706 68.73C678.384 68.73 678.122 68.9911 678.122 69.3132C678.122 69.6353 678.384 69.8965 678.706 69.8965C679.028 69.8965 679.289 69.6353 679.289 69.3132C679.289 68.9911 679.028 68.73 678.706 68.73Z" fill="white" fill-opacity="0.15"/>
<path d="M290.033 335.857C289.711 335.857 289.45 336.118 289.45 336.44C289.45 336.762 289.711 337.023 290.033 337.023C290.355 337.023 290.616 336.762 290.616 336.44C290.616 336.118 290.355 335.857 290.033 335.857Z" fill="white" fill-opacity="0.1"/>
<path d="M1361.84 366.912C1361.52 366.912 1361.25 367.173 1361.25 367.495C1361.25 367.817 1361.52 368.078 1361.84 368.078C1362.16 368.078 1362.42 367.817 1362.42 367.495C1362.42 367.173 1362.16 366.912 1361.84 366.912Z" fill="white" fill-opacity="0.1"/>
<path d="M394.111 321.457C393.789 321.457 393.528 321.718 393.528 322.04C393.528 322.362 393.789 322.623 394.111 322.623C394.433 322.623 394.694 322.362 394.694 322.04C394.694 321.718 394.433 321.457 394.111 321.457Z" fill="white" fill-opacity="0.25"/>
<path d="M1239.69 315.634C1239.37 315.634 1239.11 315.895 1239.11 316.218C1239.11 316.54 1239.37 316.801 1239.69 316.801C1240.01 316.801 1240.27 316.54 1240.27 316.218C1240.27 315.895 1240.01 315.634 1239.69 315.634Z" fill="white" fill-opacity="0.15"/>
<path d="M1626.79 765.677C1626.46 765.677 1626.2 765.938 1626.2 766.26C1626.2 766.583 1626.46 766.844 1626.79 766.844C1627.11 766.844 1627.37 766.583 1627.37 766.26C1627.37 765.938 1627.11 765.677 1626.79 765.677Z" fill="white" fill-opacity="0.05"/>
<path d="M1247.84 753.761C1247.52 753.761 1247.26 754.022 1247.26 754.344C1247.26 754.667 1247.52 754.928 1247.84 754.928C1248.16 754.928 1248.42 754.667 1248.42 754.344C1248.42 754.022 1248.16 753.761 1247.84 753.761Z" fill="white"/>
<path d="M803.328 582.232C803.006 582.232 802.744 582.493 802.744 582.815C802.744 583.137 803.006 583.398 803.328 583.398C803.65 583.398 803.911 583.137 803.911 582.815C803.911 582.493 803.65 582.232 803.328 582.232Z" fill="white" fill-opacity="0.15"/>
<path d="M1123.14 648.371C1122.81 648.371 1122.55 648.632 1122.55 648.954C1122.55 649.276 1122.81 649.537 1123.14 649.537C1123.46 649.537 1123.72 649.276 1123.72 648.954C1123.72 648.632 1123.46 648.371 1123.14 648.371Z" fill="white" fill-opacity="0.25"/>
<path d="M1613.18 847.15L1612.68 845.896L1611.43 845.401L1612.68 844.906L1613.18 843.651L1613.67 844.906L1614.93 845.401L1613.67 845.896L1613.18 847.15Z" fill="white" fill-opacity="0.25"/>
<path d="M1173.24 502.826L1172.74 501.571L1171.49 501.076L1172.74 500.582L1173.24 499.327L1173.73 500.582L1174.99 501.076L1173.73 501.571L1173.24 502.826Z" fill="white" fill-opacity="0.15"/>
<path d="M1644.92 742.902L1644.42 741.647L1643.17 741.153L1644.42 740.658L1644.92 739.403L1645.41 740.658L1646.67 741.153L1645.41 741.647L1644.92 742.902Z" fill="white" fill-opacity="0.1"/>
<path d="M1301.14 424.104L1300.64 422.849L1299.39 422.354L1300.64 421.859L1301.14 420.604L1301.63 421.859L1302.89 422.354L1301.63 422.849L1301.14 424.104Z" fill="white" fill-opacity="0.25"/>
<path d="M1250.28 555.561L1249.78 554.305L1248.53 553.811L1249.78 553.315L1250.28 552.061L1250.77 553.315L1252.03 553.811L1250.77 554.305L1250.28 555.561Z" fill="white" fill-opacity="0.15"/>
<path d="M528.331 821.947L527.836 820.692L526.581 820.197L527.836 819.703L528.331 818.448L528.827 819.703L530.081 820.197L528.827 820.692L528.331 821.947Z" fill="white" fill-opacity="0.15"/>
<path d="M241.277 80.3594L240.787 79.1054L239.527 78.6096L240.787 78.115L241.277 76.8598L241.779 78.115L243.027 78.6096L241.779 79.1054L241.277 80.3594Z" fill="white" fill-opacity="0.05"/>
<path d="M717.748 779.441L717.253 778.187L715.998 777.692L717.253 777.197L717.748 775.942L718.243 777.197L719.498 777.692L718.243 778.187L717.748 779.441Z" fill="white" fill-opacity="0.1"/>
<path d="M209.369 867.773L208.868 866.519L207.619 866.024L208.868 865.529L209.369 864.274L209.859 865.529L211.119 866.024L209.859 866.519L209.369 867.773Z" fill="white" fill-opacity="0.25"/>
<path d="M908.232 653.029L907.738 651.775L906.482 651.28L907.738 650.785L908.232 649.53L908.728 650.785L909.982 651.28L908.728 651.775L908.232 653.029Z" fill="white" fill-opacity="0.1"/>
<path d="M118.708 77.9551L118.218 76.6999L116.958 76.2053L118.218 75.7107L118.708 74.4555L119.21 75.7107L120.458 76.2053L119.21 76.6999L118.708 77.9551Z" fill="white" fill-opacity="0.1"/>
<path d="M1227.04 668.189L1226.55 666.935L1225.29 666.44L1226.55 665.945L1227.04 664.69L1227.54 665.945L1228.79 666.44L1227.54 666.935L1227.04 668.189Z" fill="white" fill-opacity="0.25"/>
<path d="M695.397 56.8672L694.902 55.6132L693.647 55.1174L694.902 54.6228L695.397 53.3676L695.892 54.6228L697.147 55.1174L695.892 55.6132L695.397 56.8672Z" fill="white" fill-opacity="0.15"/>
<path d="M1454.27 459.123L1453.77 457.868L1452.52 457.373L1453.77 456.877L1454.27 455.623L1454.76 456.877L1456.02 457.373L1454.76 457.868L1454.27 459.123Z" fill="white" fill-opacity="0.25"/>
<path d="M164.838 644.91L164.336 643.655L163.088 643.16L164.336 642.665L164.838 641.411L165.328 642.665L166.588 643.16L165.328 643.655L164.838 644.91Z" fill="white" fill-opacity="0.25"/>
<path d="M621.728 457.215L621.233 455.96L619.978 455.465L621.233 454.969L621.728 453.715L622.222 454.969L623.478 455.465L622.222 455.96L621.728 457.215Z" fill="white" fill-opacity="0.1"/>
<path d="M620.853 847.412L620.358 846.157L619.103 845.662L620.358 845.167L620.853 843.913L621.347 845.167L622.603 845.662L621.347 846.157L620.853 847.412Z" fill="white" fill-opacity="0.05"/>
<path d="M1404.58 509.273L1404.09 508.018L1402.83 507.524L1404.09 507.029L1404.58 505.774L1405.08 507.029L1406.33 507.524L1405.08 508.018L1404.58 509.273Z" fill="white" fill-opacity="0.05"/>
<path d="M102.842 698.125L102.34 696.87L101.092 696.375L102.34 695.881L102.842 694.625L103.332 695.881L104.592 696.375L103.332 696.87L102.842 698.125Z" fill="white" fill-opacity="0.25"/>
<path d="M1228.75 410.201L1228.25 408.946L1227 408.451L1228.25 407.957L1228.75 406.702L1229.24 407.957L1230.5 408.451L1229.24 408.946L1228.75 410.201Z" fill="white" fill-opacity="0.15"/>
<path d="M111.229 244.027L110.728 242.773L109.479 242.278L110.728 241.783L111.229 240.528L111.72 241.783L112.979 242.278L111.72 242.773L111.229 244.027Z" fill="white" fill-opacity="0.1"/>
<path d="M134.154 408.168L133.653 406.914L132.404 406.418L133.653 405.924L134.154 404.668L134.644 405.924L135.904 406.418L134.644 406.914L134.154 408.168Z" fill="white" fill-opacity="0.05"/>
<path d="M416.383 59.5723L415.893 58.3171L414.633 57.8225L415.893 57.3278L416.383 56.0727L416.884 57.3278L418.133 57.8225L416.884 58.3171L416.383 59.5723Z" fill="white" fill-opacity="0.25"/>
<path d="M951.406 377.911C950.44 377.911 949.656 378.694 949.656 379.66C949.656 380.627 950.44 381.41 951.406 381.41C952.373 381.41 953.156 380.627 953.156 379.66C953.156 378.694 952.373 377.911 951.406 377.911Z" fill="white" fill-opacity="0.1"/>
<path d="M644.763 570.344C643.796 570.344 643.013 571.128 643.013 572.094C643.013 573.06 643.796 573.844 644.763 573.844C645.729 573.844 646.513 573.06 646.513 572.094C646.513 571.128 645.729 570.344 644.763 570.344Z" fill="white" fill-opacity="0.15"/>
<path d="M755.845 360.096C754.878 360.096 754.095 360.88 754.095 361.846C754.095 362.812 754.878 363.596 755.845 363.596C756.811 363.596 757.595 362.812 757.595 361.846C757.595 360.88 756.811 360.096 755.845 360.096Z" fill="white" fill-opacity="0.15"/>
<path d="M287.104 17.0551C286.137 17.0551 285.354 17.8385 285.354 18.8049C285.354 19.7713 286.137 20.5547 287.104 20.5547C288.07 20.5547 288.854 19.7713 288.854 18.8049C288.854 17.8385 288.07 17.0551 287.104 17.0551Z" fill="white" fill-opacity="0.25"/>
<path d="M318.71 270.526C317.743 270.526 316.96 271.309 316.96 272.276C316.96 273.242 317.743 274.025 318.71 274.025C319.676 274.025 320.46 273.242 320.46 272.276C320.46 271.309 319.676 270.526 318.71 270.526Z" fill="white" fill-opacity="0.15"/>
<path d="M1645.13 915.469C1644.16 915.469 1643.38 916.253 1643.38 917.219C1643.38 918.185 1644.16 918.969 1645.13 918.969C1646.1 918.969 1646.88 918.185 1646.88 917.219C1646.88 916.253 1646.1 915.469 1645.13 915.469Z" fill="white" fill-opacity="0.25"/>
<path d="M1417.95 819.909C1416.98 819.909 1416.2 820.692 1416.2 821.658C1416.2 822.625 1416.98 823.408 1417.95 823.408C1418.91 823.408 1419.7 822.625 1419.7 821.658C1419.7 820.692 1418.91 819.909 1417.95 819.909Z" fill="white" fill-opacity="0.25"/>
<path d="M784.697 21.6352C783.731 21.6352 782.947 22.4186 782.947 23.385C782.947 24.3514 783.731 25.1348 784.697 25.1348C785.664 25.1348 786.447 24.3514 786.447 23.385C786.447 22.4186 785.664 21.6352 784.697 21.6352Z" fill="white" fill-opacity="0.25"/>
<path d="M956.847 236.006C955.88 236.006 955.097 236.79 955.097 237.756C955.097 238.722 955.88 239.506 956.847 239.506C957.813 239.506 958.597 238.722 958.597 237.756C958.597 236.79 957.813 236.006 956.847 236.006Z" fill="white" fill-opacity="0.05"/>
<path d="M578.96 133.161C577.993 133.161 577.21 133.944 577.21 134.91C577.21 135.877 577.993 136.66 578.96 136.66C579.926 136.66 580.71 135.877 580.71 134.91C580.71 133.944 579.926 133.161 578.96 133.161Z" fill="white" fill-opacity="0.05"/>
<path d="M578.928 594.377C577.961 594.377 577.178 595.161 577.178 596.127C577.178 597.094 577.961 597.877 578.928 597.877C579.894 597.877 580.678 597.094 580.678 596.127C580.678 595.161 579.894 594.377 578.928 594.377Z" fill="white" fill-opacity="0.15"/>
<path d="M361.502 683.543C360.535 683.543 359.752 684.327 359.752 685.293C359.752 686.26 360.535 687.043 361.502 687.043C362.468 687.043 363.252 686.26 363.252 685.293C363.252 684.327 362.468 683.543 361.502 683.543Z" fill="white" fill-opacity="0.15"/>
<path d="M1005.96 847.225C1004.99 847.225 1004.21 848.008 1004.21 848.975C1004.21 849.941 1004.99 850.725 1005.96 850.725C1006.93 850.725 1007.71 849.941 1007.71 848.975C1007.71 848.008 1006.93 847.225 1005.96 847.225Z" fill="white" fill-opacity="0.05"/>
<path d="M976.336 55.8344C975.369 55.8344 974.586 56.6178 974.586 57.5842C974.586 58.5506 975.369 59.334 976.336 59.334C977.302 59.334 978.086 58.5506 978.086 57.5842C978.086 56.6178 977.302 55.8344 976.336 55.8344Z" fill="white" fill-opacity="0.25"/>
<path d="M1190.26 144.75C1189.29 144.75 1188.51 145.534 1188.51 146.5C1188.51 147.467 1189.29 148.25 1190.26 148.25C1191.22 148.25 1192.01 147.467 1192.01 146.5C1192.01 145.534 1191.22 144.75 1190.26 144.75Z" fill="white" fill-opacity="0.15"/>
<path d="M639.531 726.559C638.565 726.559 637.781 727.342 637.781 728.309C637.781 729.275 638.565 730.059 639.531 730.059C640.498 730.059 641.281 729.275 641.281 728.309C641.281 727.342 640.498 726.559 639.531 726.559Z" fill="white" fill-opacity="0.25"/>
<path d="M1594.01 107.193L1593 105.444H1595.02L1594.01 107.193Z" fill="white" fill-opacity="0.25"/>
<path d="M673.215 228.123L672.205 226.373H674.226L673.215 228.123Z" fill="white"/>
<path d="M501.153 902.617L500.15 900.867H502.168L501.153 902.617Z" fill="white" fill-opacity="0.05"/>
<path d="M293.358 913.881L292.343 912.131H294.361L293.358 913.881Z" fill="white" fill-opacity="0.25"/>
<path d="M1327.37 881.816L1326.36 880.067H1328.38L1327.37 881.816Z" fill="white" fill-opacity="0.25"/>
<path d="M792.575 868.734L791.564 866.985H793.585L792.575 868.734Z" fill="white" fill-opacity="0.1"/>
<path d="M275.544 830.002L274.529 828.252H276.547L275.544 830.002Z" fill="white" fill-opacity="0.25"/>
<path d="M1066.26 845.578L1065.25 843.828H1067.27L1066.26 845.578Z" fill="white" fill-opacity="0.15"/>
<path d="M1130.21 273.207L1129.2 271.457H1131.22L1130.21 273.207Z" fill="white" fill-opacity="0.25"/>
<path d="M1554.12 83.6914L1553.11 81.9416H1555.13L1554.12 83.6914Z" fill="white" fill-opacity="0.15"/>
<path d="M1360.26 484.564L1359.25 482.815H1361.27L1360.26 484.564Z" fill="white" fill-opacity="0.15"/>
<path d="M906.441 659.492L905.431 657.742H907.451L906.441 659.492Z" fill="white" fill-opacity="0.25"/>
<path d="M387.566 308.531L386.563 306.781H388.581L387.566 308.531Z" fill="white"/>
<path d="M533.121 405.008L532.111 403.258H534.132L533.121 405.008Z" fill="white" fill-opacity="0.05"/>
<path d="M1134.94 920.244L1133.93 918.494H1135.95L1134.94 920.244Z" fill="white" fill-opacity="0.25"/>
<path d="M798.424 918.992L797.414 917.242H799.435L798.424 918.992Z" fill="white" fill-opacity="0.15"/>
<path d="M785.343 37.1465L784.333 35.3967H786.354L785.343 37.1465Z" fill="white" fill-opacity="0.05"/>
<path d="M261.239 814.611L260.224 812.862H262.254L261.239 814.611Z" fill="white" fill-opacity="0.1"/>
<path d="M1297.73 567.523L1296.72 565.774H1298.74L1297.73 567.523Z" fill="white" fill-opacity="0.1"/>
<path d="M856.149 156.359L855.139 154.61H857.159L856.149 156.359Z" fill="white" fill-opacity="0.1"/>
<path d="M512.924 512.369L511.909 510.619H513.93L512.924 512.369Z" fill="white" fill-opacity="0.15"/>
<path d="M1273.53 734.18L1272.52 732.43H1274.54L1273.53 734.18Z" fill="white" fill-opacity="0.1"/>
<path d="M898.427 145.254L897.417 143.504H899.438L898.427 145.254Z" fill="white" fill-opacity="0.15"/>
<path d="M1402.92 326.99L1401.91 325.24H1403.93L1402.92 326.99Z" fill="white" fill-opacity="0.1"/>
<path d="M792.444 330.955L791.433 329.205H793.454L792.444 330.955Z" fill="white"/>
<path d="M976.651 764.404L975.64 762.655H977.661L976.651 764.404Z" fill="white" fill-opacity="0.25"/>
<path d="M1200.43 195.486L1199.41 193.737H1201.44L1200.43 195.486Z" fill="white" fill-opacity="0.1"/>
<path d="M1260.57 109.602L1259.56 107.852H1261.58L1260.57 109.602Z" fill="white" fill-opacity="0.15"/>
<path d="M1328.95 330.117L1327.94 328.367H1329.96L1328.95 330.117Z" fill="white" fill-opacity="0.25"/>
<path d="M1418.24 764.773L1417.23 763.024H1419.25L1418.24 764.773Z" fill="white" fill-opacity="0.1"/>
<path d="M805.014 53.8555L804.004 52.1057H806.024L805.014 53.8555Z" fill="white" fill-opacity="0.05"/>
<rect y="888" width="1680" height="68" fill="url(#paint6_linear_463_526)"/>
</g>
<defs>
<linearGradient id="paint0_linear_463_526" x1="1456.95" y1="725.373" x2="1456.95" y2="603.901" gradientUnits="userSpaceOnUse">
<stop stop-color="white" stop-opacity="0"/>
<stop offset="1" stop-color="white"/>
</linearGradient>
<linearGradient id="paint1_linear_463_526" x1="1210.42" y1="366.979" x2="1210.42" y2="253.504" gradientUnits="userSpaceOnUse">
<stop stop-color="white" stop-opacity="0"/>
<stop offset="1" stop-color="white"/>
</linearGradient>
<linearGradient id="paint2_linear_463_526" x1="343.944" y1="373.721" x2="343.944" y2="252.249" gradientUnits="userSpaceOnUse">
<stop stop-color="white" stop-opacity="0"/>
<stop offset="1" stop-color="white"/>
</linearGradient>
<linearGradient id="paint3_linear_463_526" x1="1209.61" y1="847.836" x2="1209.61" y2="726.363" gradientUnits="userSpaceOnUse">
<stop stop-color="white" stop-opacity="0"/>
<stop offset="1" stop-color="white"/>
</linearGradient>
<radialGradient id="paint4_radial_463_526" cx="0" cy="0" r="1" gradientUnits="userSpaceOnUse" gradientTransform="translate(840 480.725) rotate(-90) scale(748.725 1170.77)">
<stop stop-color="white"/>
<stop offset="1" stop-color="white" stop-opacity="0"/>
</radialGradient>
<linearGradient id="paint5_linear_463_526" x1="592.447" y1="848.959" x2="592.447" y2="727.486" gradientUnits="userSpaceOnUse">
<stop stop-color="white" stop-opacity="0"/>
<stop offset="1" stop-color="white"/>
</linearGradient>
<linearGradient id="paint6_linear_463_526" x1="840" y1="888" x2="840" y2="956" gradientUnits="userSpaceOnUse">
<stop stop-opacity="0"/>
<stop offset="1"/>
</linearGradient>
</defs>
</svg>
