<svg width="127" height="90" viewBox="0 0 127 90" fill="none" xmlns="http://www.w3.org/2000/svg">
<path d="M33.2001 35.576C26.1441 35.576 21.0321 30.644 21.0321 22.256C21.0321 14.156 25.7841 8.864 33.3081 8.864C40.1841 8.864 43.8921 12.32 44.9721 18.62L38.4921 18.872C37.9521 15.812 36.1161 13.976 33.3081 13.976C29.5281 13.976 27.4761 17.324 27.4761 22.256C27.4761 27.296 29.6721 30.464 33.2721 30.464C36.3681 30.464 38.0601 28.556 38.5281 25.244L45.0441 25.496C43.9641 31.94 40.0041 35.576 33.2001 35.576ZM59.1302 35.576C52.2902 35.576 48.3302 32.048 47.9702 26.504L54.2342 26.216C54.6302 28.988 56.1782 30.536 59.2022 30.536C61.6142 30.536 63.0182 29.672 63.0182 27.944C63.0182 26.36 62.2262 25.46 57.8702 24.524C51.1022 23.084 48.4382 21.248 48.4382 16.712C48.4382 12.068 52.1462 8.864 58.3742 8.864C64.9622 8.864 68.4182 12.536 68.9582 17.684L62.7302 17.972C62.5142 15.488 60.9302 13.904 58.3022 13.904C56.0702 13.904 54.7382 14.948 54.7382 16.496C54.7382 18.26 55.8542 19.016 59.5982 19.736C66.9062 21.104 69.3182 23.696 69.3182 27.656C69.3182 32.552 65.4662 35.576 59.1302 35.576ZM72.8425 35V9.44H91.2025V14.552H79.1065V19.628H90.7705V24.74H79.1065V29.888H91.4905V35H72.8425ZM3.37378 80V54.44H21.5178V59.552H9.63778V64.952H20.8698V70.064H9.63778V80H3.37378ZM25.3113 80V54.44H43.6713V59.552H31.5753V64.628H43.2393V69.74H31.5753V74.888H43.9593V80H25.3113ZM58.3568 80.576C51.5168 80.576 47.5568 77.048 47.1968 71.504L53.4608 71.216C53.8568 73.988 55.4048 75.536 58.4288 75.536C60.8408 75.536 62.2448 74.672 62.2448 72.944C62.2448 71.36 61.4528 70.46 57.0968 69.524C50.3288 68.084 47.6648 66.248 47.6648 61.712C47.6648 57.068 51.3728 53.864 57.6008 53.864C64.1888 53.864 67.6448 57.536 68.1848 62.684L61.9568 62.972C61.7408 60.488 60.1568 58.904 57.5288 58.904C55.2968 58.904 53.9648 59.948 53.9648 61.496C53.9648 63.26 55.0808 64.016 58.8248 64.736C66.1328 66.104 68.5448 68.696 68.5448 72.656C68.5448 77.552 64.6928 80.576 58.3568 80.576ZM78.1539 80V59.552H70.5939V54.44H92.0139V59.552H84.4539V80H78.1539Z" fill="white"/>
<path d="M107.598 76.6758H109.766V79.0781H107.598C107.27 79.0781 106.961 79.0156 106.672 78.8906C106.375 78.7656 106.121 78.5938 105.91 78.375C105.691 78.1562 105.52 77.9023 105.395 77.6133C105.262 77.3164 105.195 77.0039 105.195 76.6758V69.0703C105.195 68.7422 105.262 68.4336 105.395 68.1445C105.52 67.8477 105.691 67.5938 105.91 67.3828C106.121 67.1641 106.375 66.9922 106.672 66.8672C106.961 66.7344 107.27 66.668 107.598 66.668H110.668C110.996 66.668 111.289 66.6992 111.547 66.7617C111.805 66.8242 112.039 66.9258 112.25 67.0664C112.453 67.1992 112.637 67.3711 112.801 67.582C112.965 67.793 113.121 68.0508 113.27 68.3555L117.172 76.6758H119.598V68.7656H117.441V66.3633H122V79.0781H117.582C117.254 79.0781 116.961 79.0469 116.703 78.9844C116.445 78.9141 116.215 78.8125 116.012 78.6797C115.809 78.5469 115.625 78.375 115.461 78.1641C115.289 77.9453 115.133 77.6914 114.992 77.4023L111.078 69.0703H107.598V76.6758ZM119.598 46.4264C119.926 46.4264 120.238 46.4889 120.535 46.6139C120.824 46.7389 121.078 46.9108 121.297 47.1295C121.516 47.3483 121.688 47.6061 121.812 47.903C121.938 48.192 122 48.5006 122 48.8288V57.2311C122 57.5592 121.938 57.8717 121.812 58.1686C121.688 58.4577 121.516 58.7116 121.297 58.9303C121.078 59.1491 120.824 59.3209 120.535 59.4459C120.238 59.5709 119.926 59.6334 119.598 59.6334H107.598C107.27 59.6334 106.961 59.5709 106.672 59.4459C106.375 59.3209 106.121 59.1491 105.91 58.9303C105.691 58.7116 105.52 58.4577 105.395 58.1686C105.262 57.8717 105.195 57.5592 105.195 57.2311V48.8288C105.195 48.5006 105.262 48.192 105.395 47.903C105.52 47.6061 105.691 47.3483 105.91 47.1295C106.121 46.9108 106.375 46.7389 106.672 46.6139C106.961 46.4889 107.27 46.4264 107.598 46.4264H119.598ZM107.598 57.2311H119.598V48.8288H107.598V57.2311ZM107.598 37.2942H109.766V39.6966H107.598C107.27 39.6966 106.961 39.6341 106.672 39.5091C106.375 39.3841 106.121 39.2122 105.91 38.9934C105.691 38.7747 105.52 38.5208 105.395 38.2317C105.262 37.9348 105.195 37.6223 105.195 37.2942V29.6888C105.195 29.3606 105.262 29.052 105.395 28.763C105.52 28.4661 105.691 28.2122 105.91 28.0013C106.121 27.7825 106.375 27.6106 106.672 27.4856C106.961 27.3528 107.27 27.2864 107.598 27.2864H110.668C110.996 27.2864 111.289 27.3177 111.547 27.3802C111.805 27.4427 112.039 27.5442 112.25 27.6848C112.453 27.8177 112.637 27.9895 112.801 28.2005C112.965 28.4114 113.121 28.6692 113.27 28.9739L117.172 37.2942H119.598V29.3841H117.441V26.9817H122V39.6966H117.582C117.254 39.6966 116.961 39.6653 116.703 39.6028C116.445 39.5325 116.215 39.4309 116.012 39.2981C115.809 39.1653 115.625 38.9934 115.461 38.7825C115.289 38.5638 115.133 38.3098 114.992 38.0208L111.078 29.6888H107.598V37.2942ZM116.211 21.9277L105.195 13.6425V10.8183H116.211V8.55656H118.52V10.8183H122V13.2206H118.52V21.9277H116.211ZM116.211 13.2206H108.102L116.211 19.3144V13.2206Z" fill="white"/>
</svg>
