<svg width="134" height="117" viewBox="0 0 134 117" fill="none" xmlns="http://www.w3.org/2000/svg">
<path d="M0 34.0102C0 15.2269 15.2269 0 34.0102 0V0C35.8885 0 37.4112 1.52269 37.4112 3.40102V82.9848C37.4112 101.768 22.1843 116.995 3.40102 116.995V116.995C1.52269 116.995 0 115.472 0 113.594L0 34.0102Z" fill="white"/>
<path d="M48.2939 3.40102C48.2939 1.52269 49.8166 0 51.695 0V0C70.4783 0 85.7051 15.2269 85.7051 34.0102V34.0102C85.7051 35.8885 84.1824 37.4112 82.3041 37.4112H53.294C50.5325 37.4112 48.2939 35.1726 48.2939 32.4112V3.40102Z" fill="white"/>
<path d="M134 34.0102C134 15.2269 118.773 0 99.9898 0V0C98.1115 0 96.5888 1.52269 96.5888 3.40102V82.9848C96.5888 101.768 111.816 116.995 130.599 116.995V116.995C132.477 116.995 134 115.472 134 113.594V34.0102Z" fill="white"/>
</svg>
