<svg width="20" height="14" viewBox="0 0 20 14" fill="none" xmlns="http://www.w3.org/2000/svg">
<path fill-rule="evenodd" clip-rule="evenodd" d="M8 1C8 0.447715 8.44771 0 9 0H18.5C19.0523 0 19.5 0.447715 19.5 1C19.5 1.55228 19.0523 2 18.5 2H9C8.44771 2 8 1.55228 8 1ZM0.5 7C0.5 6.44772 0.947715 6 1.5 6H18.5C19.0523 6 19.5 6.44772 19.5 7C19.5 7.55228 19.0523 8 18.5 8H1.5C0.947715 8 0.5 7.55228 0.5 7ZM1 12C0.447715 12 0 12.4477 0 13C0 13.5523 0.447715 14 1 14H10.5C11.0523 14 11.5 13.5523 11.5 13C11.5 12.4477 11.0523 12 10.5 12H1Z" fill="black"/>
</svg>
