<?xml version="1.0" encoding="UTF-8"?>
<svg id="Layer_2" data-name="Layer 2" xmlns="http://www.w3.org/2000/svg" viewBox="0 0 59.83 33.05">
  <g id="Layer_1-2" data-name="Layer 1">
    <path d="M45.51,32.63c4.2-3.33,8.78-6.18,13.6-8.53,.73-.35,.93-1.39,.54-2.05-.43-.74-1.32-.89-2.05-.54-5.06,2.47-9.8,5.5-14.2,9-.63,.5-.53,1.59,0,2.12,.63,.63,1.48,.51,2.12,0h0Z" style="fill: #8b5cf6;"/>
    <path d="M35.27,24.05V5.78c0-1.93-3-1.93-3,0V24.05c0,1.93,3,1.93,3,0h0Z" style="fill: #8b5cf6;"/>
    <path d="M17.35,22.09C12.51,14.95,7.68,7.81,2.85,.68,1.77-.91-.83,.59,.26,2.19c4.83,7.14,9.66,14.27,14.5,21.41,1.08,1.59,3.68,.09,2.59-1.51h0Z" style="fill: #8b5cf6;"/>
  </g>
</svg>