<svg width="974" height="179" viewBox="0 0 974 179" fill="none" xmlns="http://www.w3.org/2000/svg">
<path d="M0 54C0 26.3858 22.3858 4 50 4C52.7614 4 55 6.23858 55 9V126C55 153.614 32.6142 176 5 176C2.23857 176 0 173.761 0 171L0 54Z" fill="white"/>
<path d="M71 9C71 6.23857 73.2386 4 76 4C103.614 4 126 26.3858 126 54C126 56.7614 123.761 59 121 59H76C73.2386 59 71 56.7614 71 54V9Z" fill="white"/>
<path d="M197 54C197 26.3858 174.614 4 147 4C144.239 4 142 6.23858 142 9V126C142 153.614 164.386 176 192 176C194.761 176 197 173.761 197 171V54Z" fill="white"/>
<line x1="256" y1="0.000326377" x2="255.971" y2="179" stroke="white" stroke-width="4"/>
<path d="M317.375 143V37.3115H323.82L366.521 135.749H366.887L409.587 37.3115H416.105V143H410.612V49.1768H407.463L414.641 38.7764L369.45 143H363.957L318.767 38.7764L326.018 49.1768H322.868V143H317.375ZM471.503 144.172C465.79 144.172 460.883 143.024 456.781 140.729C452.68 138.386 449.506 135.017 447.26 130.622C445.062 126.228 443.964 120.93 443.964 114.729V66.8281H449.604V114.069C449.604 122.224 451.654 128.425 455.756 132.673C459.857 136.921 465.546 139.045 472.821 139.045C476.581 139.045 479.999 138.41 483.075 137.141C486.151 135.871 488.812 134.04 491.059 131.647C493.305 129.255 495.014 126.447 496.186 123.225C497.357 119.953 497.943 116.315 497.943 112.312V66.8281H503.583V143H497.943V127.18H497.797C496.625 130.402 494.818 133.308 492.377 135.896C489.936 138.483 486.933 140.51 483.368 141.975C479.853 143.439 475.897 144.172 471.503 144.172ZM531.588 143V37.3115H537.228V143H531.588ZM585.374 144.245C580.052 144.245 576.072 142.854 573.436 140.07C570.848 137.287 569.554 132.99 569.554 127.18V71.7354H558.201V66.8281H569.554V46.2471H575.267V66.8281H591.014V71.7354H575.267V126.887C575.267 131.33 576.17 134.528 577.977 136.481C579.783 138.386 582.566 139.338 586.326 139.338C587.303 139.338 588.182 139.313 588.963 139.265C589.793 139.167 590.477 139.069 591.014 138.972V143.659C590.33 143.854 589.476 144.001 588.45 144.099C587.474 144.196 586.448 144.245 585.374 144.245ZM615.796 143V66.8281H621.436V143H615.796ZM618.579 51.8867C617.407 51.8867 616.382 51.4717 615.503 50.6416C614.624 49.7627 614.185 48.7373 614.185 47.5654C614.185 46.3447 614.624 45.3193 615.503 44.4893C616.382 43.6592 617.407 43.2441 618.579 43.2441C619.8 43.2441 620.825 43.6592 621.655 44.4893C622.534 45.3193 622.974 46.3447 622.974 47.5654C622.974 48.7373 622.534 49.7627 621.655 50.6416C620.825 51.4717 619.8 51.8867 618.579 51.8867ZM679.323 144.245C672.438 144.245 666.481 142.658 661.452 139.484C656.423 136.262 652.517 131.696 649.733 125.788C646.999 119.88 645.632 112.922 645.632 104.914V104.841C645.632 96.833 646.999 89.8994 649.733 84.04C652.517 78.1318 656.423 73.5908 661.452 70.417C666.53 67.1943 672.463 65.583 679.25 65.583C684.67 65.583 689.504 66.6084 693.752 68.6592C698.049 70.6611 701.564 73.4199 704.299 76.9355C707.033 80.4512 708.791 84.4062 709.572 88.8008L709.719 89.5332H704.079L703.933 88.874C702.761 83.5518 699.953 79.2061 695.51 75.8369C691.115 72.4189 685.695 70.71 679.25 70.71C673.586 70.71 668.654 72.1016 664.455 74.8848C660.305 77.668 657.082 81.623 654.787 86.75C652.492 91.8281 651.345 97.8584 651.345 104.841V104.914C651.345 111.945 652.492 118.024 654.787 123.151C657.082 128.278 660.329 132.233 664.528 135.017C668.776 137.751 673.708 139.118 679.323 139.118C685.622 139.118 690.969 137.458 695.363 134.138C699.807 130.817 702.639 126.423 703.859 120.954L704.006 120.295H709.646L709.499 120.954C708.669 125.544 706.862 129.597 704.079 133.112C701.345 136.579 697.854 139.313 693.605 141.315C689.406 143.269 684.646 144.245 679.323 144.245ZM762.846 144.245C756.107 144.196 750.175 142.585 745.048 139.411C739.97 136.237 736.015 131.696 733.183 125.788C730.351 119.88 728.935 112.922 728.935 104.914V104.768C728.935 96.7109 730.351 89.7529 733.183 83.8936C736.015 78.0342 739.97 73.5176 745.048 70.3438C750.175 67.1699 756.107 65.583 762.846 65.583C769.584 65.583 775.492 67.1699 780.57 70.3438C785.697 73.5176 789.677 78.0342 792.509 83.8936C795.39 89.7529 796.83 96.7109 796.83 104.768V104.914C796.83 112.971 795.39 119.953 792.509 125.861C789.677 131.77 785.697 136.311 780.57 139.484C775.492 142.658 769.584 144.245 762.846 144.245ZM762.846 139.118C768.51 139.118 773.466 137.751 777.714 135.017C781.962 132.233 785.258 128.278 787.602 123.151C789.945 118.024 791.117 111.945 791.117 104.914V104.768C791.117 97.7363 789.921 91.6816 787.528 86.6035C785.185 81.4766 781.889 77.5459 777.641 74.8115C773.393 72.0771 768.461 70.71 762.846 70.71C757.182 70.71 752.226 72.1016 747.978 74.8848C743.778 77.6191 740.507 81.5254 738.163 86.6035C735.819 91.6816 734.647 97.7363 734.647 104.768V104.914C734.647 111.945 735.819 118.024 738.163 123.151C740.507 128.278 743.778 132.209 747.978 134.943C752.226 137.678 757.182 139.069 762.846 139.118ZM820.44 143V66.8281H826.08V82.6484H826.3C828.058 77.7656 831.207 73.7129 835.748 70.4902C840.338 67.2676 845.953 65.6562 852.594 65.6562C861.139 65.6562 867.853 68.2441 872.735 73.4199C877.667 78.5469 880.133 85.7734 880.133 95.0996V143H874.493V95.7588C874.493 87.6045 872.442 81.4033 868.341 77.1553C864.239 72.9072 858.551 70.7832 851.275 70.7832C846.246 70.7832 841.827 71.9062 838.019 74.1523C834.259 76.3984 831.329 79.5234 829.229 83.5273C827.13 87.5312 826.08 92.1943 826.08 97.5166V143H820.44ZM937.142 144.245C930.257 144.245 924.275 142.683 919.197 139.558C914.119 136.384 910.164 131.867 907.332 126.008C904.549 120.1 903.157 113.093 903.157 104.987V104.914C903.157 96.8086 904.549 89.8262 907.332 83.9668C910.115 78.0586 913.997 73.5176 918.978 70.3438C923.958 67.1699 929.72 65.583 936.263 65.583C942.854 65.583 948.616 67.1455 953.548 70.2705C958.479 73.3467 962.312 77.6924 965.047 83.3076C967.83 88.9229 969.222 95.5391 969.222 103.156V105.866H905.94V101.105H966.585L963.655 104.987V103.083C963.655 96.3936 962.483 90.6318 960.14 85.7979C957.845 80.9639 954.622 77.2529 950.472 74.665C946.37 72.0283 941.634 70.71 936.263 70.71C930.892 70.71 926.131 72.0283 921.98 74.665C917.879 77.3018 914.656 81.0371 912.312 85.8711C909.969 90.7051 908.797 96.4424 908.797 103.083V104.987C908.797 112.312 909.969 118.513 912.312 123.591C914.705 128.669 918.025 132.526 922.273 135.163C926.57 137.8 931.551 139.118 937.215 139.118C941.658 139.118 945.589 138.435 949.007 137.067C952.425 135.651 955.257 133.649 957.503 131.062C959.798 128.425 961.434 125.324 962.41 121.76L962.557 121.174H968.27L968.123 121.833C967.342 125.251 966.048 128.352 964.241 131.135C962.483 133.869 960.262 136.213 957.576 138.166C954.891 140.119 951.814 141.633 948.348 142.707C944.93 143.732 941.194 144.245 937.142 144.245Z" fill="white"/>
</svg>
